<?xml version="1.0" ?><!DOCTYPE svg  PUBLIC '-//W3C//DTD SVG 1.1//EN'  'http://www.w3.org/Graphics/SVG/1.1/DTD/svg11.dtd'><svg enable-background="new 0 0 512 512" height="512px" id="Sketching" version="1.1" viewBox="0 0 512 512" width="512px" xml:space="preserve" xmlns="http://www.w3.org/2000/svg" xmlns:xlink="http://www.w3.org/1999/xlink"><path d="M255.997,0C397.434,0,512,114.498,512,256.157C512,397.503,397.434,512,255.997,512  C114.566,512,0,397.503,0,256.157C0,114.498,114.566,0,255.997,0z" fill="#F5874F" id="Background"/><g id="Sketching_1_"><path d="M52.842,157.298l181.545-62.77c10.818-3.787,22.994,1.894,26.781,12.991l94.694,273.529   c3.791,10.821-2.162,22.998-12.987,26.785l-181.54,62.77c-11.093,3.786-23.27-1.894-27.057-12.986L39.588,184.083   C35.797,173.26,41.749,161.089,52.842,157.298z" fill="#B88A2E"/><path d="M52.842,157.298l181.545-62.77c2.433-1.079,5.138-1.351,7.846-1.351c5.681,2.166,10.55,6.764,12.716,12.984   l94.693,273.536c3.788,10.822-2.164,22.998-13.258,26.785l-181.541,63.038c-2.708,0.813-5.145,1.082-7.846,1.082   c-5.685-2.166-10.554-6.764-12.719-12.986L39.588,184.083C35.797,173.26,41.749,161.089,52.842,157.298z" fill="#CC9933"/><path d="M110.199,137.547l66.56-23.269c0.808,2.979,4.059,20.022,1.079,20.836l-55.463,19.207   C119.399,155.404,111.286,140.252,110.199,137.547z" fill="#B88A2E"/><polygon fill="#CFCFCF" points="51.221,179.213 236.821,102.917 351.536,381.048 165.934,457.616  "/><polygon fill="#E6E6E6" points="66.641,161.356 260.63,109.413 338.278,400.258 144.562,452.206  "/><polygon fill="#CFCFCF" points="186.499,413.785 194.345,418.115 180.818,436.244  "/><path d="M186.499,413.785l7.846,4.33l-1.083,1.622c-0.54,0.543-1.894,1.354-2.434,1.354   c-1.085,0.271-0.542-2.976-1.085-3.516c-0.272-0.813-2.433,1.895-3.245,1.895c-0.542,0-0.542-2.165-0.271-4.06L186.499,413.785z" fill="#CFCFCF"/><polygon fill="#CFCFCF" points="184.063,431.914 180.818,436.244 182.168,431.103  "/><path d="M186.499,413.785L265.5,251.45c4.057-8.385,12.174-4.598,8.115,3.791l-79.271,162.874   c-1.354,0.271-2.976,2.165-3.248,1.893c-0.54-0.271,0-3.246-0.811-3.786c-0.815-0.271-3.248,2.704-3.248,1.894   S186.77,415.683,186.499,413.785z" fill="#CFCFCF"/><path d="M190.829,418.654c0-1.079,0-2.161-0.542-2.433c-0.543-0.271-1.354,0.54-2.166,1.354l74.943-154.217   l2.708,1.351L190.829,418.654z" fill="#CFCFCF"/><path d="M186.499,413.785l73.864-151.781l2.701,1.354l-74.943,154.217c-0.543,0.54-1.082,0.812-1.082,0.54   C187.039,417.305,186.77,415.683,186.499,413.785z" fill="#CFCFCF"/><polygon fill="#CFCFCF" points="260.362,262.004 262.523,257.406 270.639,261.464 268.208,266.063  "/><path d="M262.523,257.406l2.977-5.956c4.057-8.653,12.174-4.598,8.115,3.791l-2.977,6.223L262.523,257.406z" fill="#CFCFCF"/><path d="M111.014,121.856l10.818-3.791c0-0.268-0.268-0.808-0.268-1.079l-2.165-5.681   c-1.083-2.98,0.812-6.495,3.791-7.578l22.723-7.846c0,0,0,0,0.271,0c1.622,0.54,2.976,1.894,3.516,3.519l1.896,5.681   c0.269,0.271,0.811,1.893,0.811,2.437c4.602-1.626,8.929-3.252,14.07-4.874c0.272-0.271,0.272-0.271,0.543-0.271   c1.351,0.543,2.701,1.893,3.244,3.519l2.165,5.681c1.083,3.248,4.059,20.561,1.083,21.648l-53.841,18.396   c-3.791-2.976-9.471-14.07-10.282-16.502l-2.162-5.681C106.141,126.183,107.766,122.939,111.014,121.856z" fill="#B8B8B8"/><path d="M120.753,118.337l1.079-0.271c0-0.268-0.268-0.808-0.268-1.079l-2.165-5.681   c-0.811-2.708,0.271-5.684,2.705-7.039l0,0l22.729-7.845c0,0,0,0,0.272,0c1.622,0.543,2.701,1.893,3.515,3.519l1.894,5.681   c0,0.271,0.543,1.897,0.811,2.437c4.599-1.625,8.929-3.248,14.07-5.141c0.268,0,0.268,0,0.268,0   c1.626,0.543,2.979,1.894,3.519,3.516l2.165,5.681c0.811,2.979,3.787,18.671,1.354,21.108l-53.03,18.396   c-3.791-2.976-9.471-14.07-10.282-16.502l-2.162-5.681c-0.814-2.708,0.268-5.684,2.701-7.039l0,0l10.826-3.787V118.337z" fill="#CCCCCC"/><path d="M133.2,325.585c-1.085,0.543-2.436,0.543-3.519,0c-1.083-0.539-1.897-1.354-2.165-2.705   c-0.54-1.082,0.54-2.437,2.433-4.059c2.166-1.893,4.602-3.787,7.306-5.681c2.705-1.897,5.685-3.519,8.389-5.413   c2.704-1.622,4.598-2.976,5.68-3.786c-0.539-1.894-1.625-5.143-2.976-9.74c-1.35-4.329-2.976-9.471-4.33-15.423   c-1.35-5.682-2.705-11.633-4.059-17.856c-1.079-6.22-1.894-11.905-2.433-17.317c-0.271-5.409,0-10.011,0.812-13.798   c0.814-3.787,2.437-6.224,5.141-7.303c2.165-0.543,4.598,0,7.306,1.894c2.705,1.622,5.138,4.33,7.846,7.845   c2.705,3.516,5.137,7.575,7.846,11.905c2.437,4.601,4.87,8.928,6.763,12.987c2.165,4.329,4.059,8.117,5.413,11.633   c1.622,3.519,2.705,6.224,3.244,7.578c1.893-1.354,3.519-2.708,5.413-4.06c1.622-1.354,3.787-2.437,5.952-3.247   c1.354-0.543,2.433-0.543,3.248,0c0.54,0.539,1.079,1.354,1.622,2.704c0.271,0.811,0,1.895-1.083,3.248   c-0.811,1.082-2.166,2.433-3.52,3.787c-1.351,1.354-2.973,2.437-4.326,3.52c-1.354,1.078-2.434,1.894-3.248,2.433   c1.622,3.248,3.515,7.846,6.495,13.258c2.704,5.682,5.681,11.362,8.657,17.046c3.248,5.681,6.492,11.094,9.739,16.23   c3.247,5.142,6.224,8.66,8.928,10.555v-0.271c1.622,0.543,3.248,1.083,5.141,1.354c1.894,0.54,3.248,1.623,4.059,3.244   c-0.272,1.083-0.272,1.896-0.811,3.248c-0.543,1.083-1.083,1.894-2.165,2.165c-2.708,0.811-5.681,0.272-8.661-1.622   c-3.244-2.165-6.491-5.141-9.739-8.929c-3.244-4.059-6.224-8.389-9.468-13.53c-2.977-4.868-5.681-9.738-8.389-14.88   c-2.705-4.87-4.866-9.468-6.763-13.526c-2.162-4.059-3.516-7.035-4.327-9.199c-2.708,2.976-5.681,5.681-8.661,8.116   c-2.973,2.705-5.952,5.409-8.928,8.117c0.54,1.352,1.625,4.599,3.52,9.197c1.893,4.601,3.787,9.471,5.68,14.88   c1.083,2.977,1.894,5.953,2.708,8.928c0.807,2.709,1.351,5.414,1.894,7.85c0.268,2.434,0.268,4.327,0.268,5.952   c-0.268,1.622-0.811,2.434-1.894,2.977c-2.433,0.812-4.059,0-5.141-1.894c-1.35-2.164-2.165-3.79-2.705-5.413   c-2.165-6.223-4.059-12.176-5.685-18.128c-1.622-5.952-3.515-12.176-5.68-18.128c-1.079,0.814-2.705,1.896-4.33,3.248   c-1.894,1.354-3.787,2.704-5.952,4.059c-1.894,1.354-3.788,2.704-5.681,3.787C136.173,324.502,134.551,325.313,133.2,325.585z    M146.999,231.433c-1.354,0.539-1.893,3.248-1.625,8.385c0.271,5.141,1.083,11.093,2.704,18.127   c1.354,6.764,2.98,14.069,4.874,21.376c1.894,7.303,3.787,13.526,5.409,18.396c2.976-2.432,5.681-4.869,8.66-7.573   c2.701-2.978,5.409-5.413,8.114-7.846l-7.035-16.507c-0.543-1.35-1.894-4.058-3.787-7.846c-1.623-3.787-3.787-7.845-5.952-11.904   c-2.165-4.059-4.33-7.574-6.495-10.822C149.7,232.243,148.077,230.893,146.999,231.433z M189.204,222.232   c-1.083-2.708-0.272-4.602,2.433-5.409c1.626-0.814,3.519,0.54,5.413,3.516c2.165,3.244,4.059,6.763,5.685,11.094   c1.893,4.327,3.515,8.385,4.866,12.443c1.354,4.059,2.436,6.496,2.708,7.574c-0.272-2.972-0.543-6.492-0.814-10.55   c-0.269-4.055,0-8.385,0.542-12.444c0.543-4.33,1.894-7.845,3.516-11.365c1.894-3.248,4.602-5.413,8.117-6.763   c4.331-1.351,7.574-0.812,9.739,1.893c2.437,2.708,4.33,5.681,5.413,9.2c1.894,5.141,3.248,10.55,3.791,15.691   c0.807,5.142,1.35,10.55,1.894,15.963c4.059-1.354,8.385-2.433,12.983-3.248c4.874-0.811,9.472-0.811,13.799,0   c4.328,0.815,8.387,2.165,12.174,4.602c3.52,2.433,6.223,6.22,7.846,11.361c1.626,4.331,1.894,8.929,0.814,14.069   c-1.083,5.141-3.247,10.012-5.952,14.881c-2.98,4.869-6.224,8.929-10.282,12.447c-4.059,3.788-8.115,6.22-12.174,7.846   c-1.351,0.269-2.977,0.54-4.87,0.811c-2.165,0.272-4.059,0.272-6.224,0.272c-1.894-0.272-3.787-0.814-5.413-1.625   c-1.894-0.812-2.973-1.895-3.515-3.516c-0.812-2.706,0-4.603,2.708-5.414l2.973-0.271c4.33,2.166,8.661,2.437,13.258,0.814   c3.247-1.082,6.224-2.976,9.198-5.684c2.977-2.705,5.408-5.952,7.574-9.468c1.894-3.788,3.247-7.307,4.059-11.094   c0.811-4.058,0.543-7.574-0.539-10.821c-1.354-3.52-3.248-5.952-5.953-7.575c-2.976-1.625-5.95-2.707-9.469-2.976   c-3.516-0.271-7.031-0.271-10.551,0.269c-3.52,0.543-6.764,1.082-9.2,2.165l-2.976,1.082c0,1.083,0,2.438-0.268,4.33   c0,1.895-0.272,3.788-0.814,5.952c-0.272,1.895-0.812,3.517-1.623,5.138c-0.814,1.625-1.894,2.708-2.976,2.979   c-2.165,0.812-3.79,0.54-5.413-1.082c-1.351-1.354-2.437-2.976-2.977-4.602c-1.082-2.977-1.082-5.952,0.272-8.929   c1.354-3.248,2.976-5.68,5.141-7.574c0-6.767-0.271-13.526-1.354-20.021c-1.083-6.763-3.52-13.258-7.574-19.21   c-2.705,1.083-4.599,3.791-5.953,7.578c-1.082,3.787-1.354,8.118-1.354,13.255c0.272,5.141,0.814,10.554,1.622,16.234   c1.086,5.952,2.165,11.365,3.519,16.774c1.354,5.412,2.705,10.282,4.059,14.609c1.354,4.33,2.433,7.577,2.976,9.472   c0.543,1.354,1.35,3.246,2.437,5.408c0.808,2.165,1.893,4.602,2.701,7.035c1.086,2.708,1.625,5.412,1.625,8.117   c0,2.436-1.083,4.33-3.248,5.142c-0.811,0.271-1.622,0-2.433-0.272c-0.811-0.539-1.625-1.082-1.897-1.894   c-7.03-16.23-13.526-32.465-20.018-48.972C203.001,254.969,196.238,238.467,189.204,222.232z" fill="#A9ABAE"/><path d="M220.858,343.17c0.539,0.271,1.083,0.271,1.625,0.543c1.894,0.271,3.244,1.35,4.059,3.247   c0,0.812-0.272,1.895-0.815,2.977c-0.272,1.078-1.079,1.895-2.165,2.161c-2.166,0.814-4.327,0.543-6.763-0.539L220.858,343.17z    M230.601,323.42l3.515-7.846c0.271,0.811,0.271,1.621,0.271,2.437c0,2.704-1.085,4.326-3.248,5.142   C230.869,323.152,230.869,323.152,230.601,323.42z M261.713,259.028l3.787-7.578c0-0.539,0.271-0.807,0.543-1.079   c0.268,0,0.539,0,0.811,0c2.703,0.54,5.14,1.35,7.572,2.433c-0.268,0.811-0.539,1.626-0.811,2.437l-2.977,5.952   c-2.163-1.082-4.867-1.894-7.575-2.165C262.523,259.028,262.256,259.028,261.713,259.028z M248.186,307.188l-4.059,8.656   c-0.542-0.271-0.814-0.542-1.354-0.542c-1.622-0.811-2.976-1.895-3.519-3.517c-0.808-2.704,0-4.598,2.708-5.681h2.976   C246.021,306.646,247.103,306.917,248.186,307.188z" fill="#8A0000"/><path d="M221.397,342.091c1.086,0.269,2.166,0.54,3.52,0.811c1.894,0.54,3.248,1.623,4.059,3.244   c-0.272,0.544-0.272,1.083-0.272,1.626l-1.622,3.243c-0.271,0.272-0.539,0.272-1.083,0.544c-2.437,0.811-5.409,0.272-8.389-1.622   L221.397,342.091z M231.14,322.337l4.87-10.278c0.543,1.894,0.811,3.516,0.811,5.409c0,2.436-1.083,4.33-3.248,5.142   C232.762,322.88,231.951,322.609,231.14,322.337L231.14,322.337z M261.984,258.217l3.516-6.767c0.271-0.807,0.811-1.35,1.082-1.894   c0.812,0,1.894,0,2.705,0.271c1.896,0.272,3.789,0.815,5.411,1.354c0,1.082-0.54,2.433-1.083,4.059l-2.165,4.598   c-1.894-0.811-3.785-1.082-5.95-1.351C264.421,258.217,263.334,258.217,261.984,258.217z M248.997,306.105l-4.059,8.387   c-1.625-0.812-2.705-1.895-3.247-3.516c-0.812-2.706,0-4.603,2.708-5.414l2.973-0.271   C247.915,305.563,248.457,305.834,248.997,306.105z" fill="#B82E00"/><path d="M223.834,343.984c0.814,0.54,1.622,1.351,2.165,2.161l-2.976,6.224c-1.083,0.271-2.165,0.271-3.248,0   L223.834,343.984z M239.525,311.786l2.708-5.681h2.705c0.268,0,0.268,0,0.54,0l-4.059,8.387   C240.612,313.681,239.797,312.868,239.525,311.786z" fill="#8A0000"/><path d="M224.377,342.901h0.54c0.811,0.269,1.626,0.54,2.165,1.083l-3.791,7.847c-1.079,0-2.162,0-2.973-0.544   L224.377,342.901z M234.388,322.069l2.433-4.874v0.272C236.821,319.633,236.01,321.255,234.388,322.069z M245.749,305.291   l-3.244,7.035c-0.272-0.268-0.543-0.811-0.814-1.35c-0.812-2.706,0-4.603,2.708-5.414L245.749,305.291z" fill="#B82E00"/><path d="M220.858,343.17c0.539,0.271,1.083,0.271,1.625,0.543c0.54,0,0.808,0.271,1.351,0.271l-4.059,8.385   c-1.079,0-1.894-0.271-2.976-0.811L220.858,343.17z M230.601,323.42l3.515-7.846c0.271,0.811,0.271,1.621,0.271,2.437   c0,2.704-1.085,4.326-3.248,5.142C230.869,323.152,230.869,323.152,230.601,323.42z M242.233,306.105l-2.708,5.681h-0.271   c-0.808-2.704,0-4.598,2.708-5.681H242.233z" fill="#8A0000"/><path d="M221.397,342.091c0.815,0.269,1.894,0.54,2.98,0.811l-4.059,8.386c-1.083-0.272-1.894-0.811-2.708-1.351   L221.397,342.091z M231.14,322.337l4.87-10.278c0.543,1.622,0.811,3.516,0.811,5.137l-2.433,4.874   c-0.271,0.268-0.543,0.268-0.814,0.54C232.762,322.88,231.951,322.609,231.14,322.337L231.14,322.337z" fill="#B82E00"/><path d="M261.713,259.028l0.811-1.622l4.87,2.433c-1.351-0.271-2.705-0.539-4.33-0.811   C262.523,259.028,262.256,259.028,261.713,259.028z" fill="#8A0000"/><path d="M261.984,258.217l0.539-0.811l1.625,0.811C263.334,258.217,262.795,258.217,261.984,258.217z" fill="#B82E00"/><path d="M262.523,257.406l2.977-5.956c0-0.539,0.271-0.807,0.543-1.079c0.268,0,0.539,0,0.811,0   c2.703,0.54,5.14,1.35,7.572,2.433c-0.268,0.811-0.539,1.626-0.811,2.437l-2.977,5.952c-1.082-0.543-2.163-1.082-3.245-1.354   L262.523,257.406z" fill="#8A0000"/><path d="M262.523,257.406l2.977-5.956c0.271-0.807,0.811-1.35,1.082-1.894c0.812,0,1.894,0,2.705,0.271   c1.896,0.272,3.789,0.815,5.411,1.354c0,1.082-0.54,2.433-1.083,4.059l-2.165,4.598c-1.894-0.811-3.785-1.082-5.95-1.351   c-0.54,0-0.812,0-1.352-0.271L262.523,257.406z" fill="#B82E00"/><polygon fill="#FFCC99" points="184.063,412.164 191.908,416.762 178.11,434.617  "/><path d="M184.063,412.164l7.845,4.598l-1.079,1.354c-0.814,0.539-1.897,1.354-2.708,1.622   c-0.811,0-0.271-3.244-0.811-3.787c-0.54-0.54-2.705,1.894-3.52,1.894c-0.271,0-0.271-2.161-0.271-3.788L184.063,412.164z" fill="#FFCC99"/><polygon fill="#4D4D4D" points="181.358,430.291 178.11,434.617 179.464,429.479  "/><path d="M184.063,412.164l78.732-162.336c4.059-8.389,12.174-4.33,8.116,4.059l-79.003,162.875   c-1.351,0-2.976,1.893-3.516,1.893c-0.271-0.268,0.272-3.515-0.543-3.787c-1.079-0.539-3.516,2.708-3.516,1.626   C184.333,415.683,184.333,414.056,184.063,412.164z" fill="#E6B800"/><path d="M188.392,417.032c0-0.811,0-1.893-0.543-2.165c-0.539-0.268-1.622,0.543-2.433,1.083l74.946-154.217   l2.701,1.354L188.392,417.032z" fill="#FFCC00"/><path d="M184.063,412.164l73.591-151.514l2.709,1.083L185.416,415.95c-0.539,0.543-1.083,1.082-1.083,0.543   C184.333,415.683,184.333,414.056,184.063,412.164z" fill="#E6B800"/><polygon fill="#CFA600" points="257.653,260.65 259.818,256.052 267.937,259.839 265.771,264.441  "/><path d="M259.818,256.052l2.977-6.224c4.331-8.389,12.174-4.33,8.116,4.059l-2.975,5.952L259.818,256.052z" fill="#CC3300"/><path d="M133.469,103.728c1.894-0.811,3.787,0.271,4.598,2.165c0.543,1.894-0.271,4.059-2.433,4.87   c-1.897,0.543-3.791-0.542-4.598-2.437C130.492,106.433,131.304,104.267,133.469,103.728z" fill="#959595"/><path d="M135.634,103.728c1.083,0.271,2.161,1.083,2.433,2.165c0.543,1.894-0.271,4.059-2.433,4.87   c-0.271,0-0.54,0-1.083,0c-1.083-0.271-1.894-1.083-2.165-2.165c-0.811-1.894,0.271-4.059,2.165-4.598   C135.094,103.728,135.362,103.728,135.634,103.728z" fill="#A6A6A6"/><polygon fill="#D3D5D6" points="318.257,46.371 384.813,3.624 415.389,90.47  "/><polygon fill="#E6E7E8" points="318.257,46.371 337.739,118.337 415.389,90.47  "/><polygon fill="#E6E7E8" points="384.813,3.624 415.389,90.47 444.879,69.098 434.328,23.374  "/><polygon fill="#E6E7E8" points="337.739,118.337 394.553,147.558 415.389,90.47  "/><polygon fill="#D3D5D6" points="438.926,95.072 415.389,90.47 394.553,147.558 429.726,125.375  "/><polygon fill="#D3D5D6" points="444.879,69.098 459.486,94.256 438.926,95.072 415.389,90.47  "/><path d="M429.726,125.375c0,0,34.092-3.519,34.092-4.873c0.272-1.623-4.331-26.246-4.331-26.246l-20.561,0.815   L429.726,125.375z" fill="#E6E7E8"/><path d="M326.104,251.183c-2.706,0-4.871-2.166-4.871-4.599c0-2.708,2.165-4.873,4.871-4.873h9.47   c2.705,0,4.87,2.165,4.87,4.873c0,2.433-2.165,4.599-4.87,4.599H326.104z M425.939,149.184c0-2.437,2.165-4.602,4.869-4.602   c2.437,0,4.599,2.165,4.599,4.602v9.74c0,2.704-2.162,4.869-4.599,4.869c-2.704,0-4.869-2.165-4.869-4.869V149.184z    M425.939,187.87c0-2.704,2.165-4.866,4.869-4.866c2.437,0,4.599,2.162,4.599,4.866v9.471c0,2.705-2.162,4.87-4.599,4.87   c-2.704,0-4.869-2.165-4.869-4.87V187.87z M425.939,226.291c0-2.708,2.165-4.87,4.869-4.87c2.437,0,4.599,2.161,4.599,4.87v9.468   c0,2.708-2.162,4.873-4.599,4.873c-2.704,0-4.869-2.165-4.869-4.873V226.291z M412.412,241.711c2.705,0,4.87,2.165,4.87,4.873   c0,2.433-2.165,4.599-4.87,4.599h-9.472c-2.703,0-4.868-2.166-4.868-4.599c0-2.708,2.165-4.873,4.868-4.873H412.412z    M373.992,241.711c2.704,0,4.869,2.165,4.869,4.873c0,2.433-2.165,4.599-4.869,4.599h-9.469c-2.709,0-4.869-2.166-4.869-4.599   c0-2.708,2.16-4.873,4.869-4.873H373.992z" fill="#4E5A62"/><path d="M348.561,275.263c-2.707,0-4.869-2.166-4.869-4.869c0-2.708,2.162-4.874,4.869-4.874h9.468   c2.704,0,4.87,2.166,4.87,4.874c0,2.703-2.166,4.869-4.87,4.869H348.561z M416.2,371.037c0,2.707-2.165,4.873-4.87,4.873   c-2.437,0-4.601-2.166-4.601-4.873v-9.739c0-2.704,2.164-4.869,4.601-4.869c2.705,0,4.87,2.165,4.87,4.869V371.037z M416.2,332.619   c0,2.438-2.165,4.599-4.87,4.599c-2.437,0-4.601-2.161-4.601-4.599v-9.739c0-2.705,2.164-4.869,4.601-4.869   c2.705,0,4.87,2.164,4.87,4.869V332.619z M416.2,294.201c0,2.434-2.165,4.598-4.87,4.598c-2.437,0-4.601-2.164-4.601-4.598v-9.742   c0-2.704,2.164-4.87,4.601-4.87c2.705,0,4.87,2.166,4.87,4.87V294.201z M396.718,265.52c2.437,0,4.602,2.166,4.602,4.874   c0,2.703-2.165,4.869-4.602,4.869h-9.739c-2.705,0-4.87-2.166-4.87-4.869c0-2.708,2.165-4.874,4.87-4.874H396.718z" fill="#4E5A62"/><path d="M412.412,382.674c35.714,0,64.663,28.95,64.663,64.663c0,35.712-28.949,64.663-64.663,64.663   c-35.984,0-64.934-28.951-64.934-64.663C347.479,411.624,376.428,382.674,412.412,382.674z M412.412,386.188   c33.549,0,60.873,27.329,60.873,61.148s-27.324,61.144-60.873,61.144c-33.819,0-61.146-27.324-61.146-61.144   S378.593,386.188,412.412,386.188z" fill="#4E5A62"/><path d="M412.412,386.188c33.549,0,60.873,27.329,60.873,61.148s-27.324,61.144-60.873,61.144   c-33.819,0-61.146-27.324-61.146-61.144S378.593,386.188,412.412,386.188z" fill="#C5483A"/><path d="M412.412,399.72c26.242,0,47.347,21.371,47.347,47.617c0,26.241-21.104,47.617-47.347,47.617   c-26.244,0-47.621-21.376-47.621-47.617C364.791,421.091,386.168,399.72,412.412,399.72z" fill="#E6E6E6"/><path d="M412.412,408.104c21.645,0,38.957,17.585,38.957,39.232c0,21.644-17.313,39.229-38.957,39.229   c-21.646,0-39.231-17.585-39.231-39.229C373.181,425.689,390.766,408.104,412.412,408.104z" fill="#C5483A"/><path d="M412.412,418.654c15.692,0,28.679,12.72,28.679,28.683c0,15.962-12.986,28.949-28.679,28.949   c-15.962,0-28.949-12.987-28.949-28.949C383.463,431.374,396.45,418.654,412.412,418.654z" fill="#E6E6E6"/><path d="M412.412,430.02c9.469,0,17.313,7.847,17.313,17.317c0,9.739-7.845,17.585-17.313,17.585   c-9.742,0-17.588-7.846-17.588-17.585C394.824,437.866,402.67,430.02,412.412,430.02z" fill="#C5483A"/><path d="M466.793,115.365c-0.271-2.98-0.812-5.952-1.354-8.661c-0.812-4.33-1.622-8.928-2.433-13.255   c0-0.272,0-0.814-0.271-1.086l-14.342-24.616l-10.55-45.188c-0.271-1.351-0.812-2.162-2.165-2.701L386.168,0.375   c-1.354-0.539-2.438-0.539-3.52,0.272l-66.286,42.748c-1.353,0.811-2.165,2.437-1.621,3.787l19.479,72.241   c0.271,1.079,1.082,1.893,1.893,2.162l56.818,29.221c1.082,0.54,2.437,0.54,3.52-0.271l34.63-21.644   c5.409-0.543,10.822-1.083,16.231-1.894c4.058-0.271,7.85-0.815,11.907-1.623c1.352-0.271,2.705-0.542,4.055-0.814   c1.897-0.543,4.06-1.351,4.331-3.787C467.604,119.423,467.065,116.715,466.793,115.365z M429.726,125.375l-35.173,22.183   l-56.813-29.221l-19.482-71.966l66.557-42.748l49.515,19.75l10.551,45.724l14.607,25.159c0,0,4.604,24.624,4.331,26.246   C463.817,121.856,429.726,125.375,429.726,125.375z" fill="#4E5A62"/><path d="M384.813,3.624l49.515,19.75l10.551,45.724l14.607,25.159c0,0,4.604,24.624,4.331,26.246   c0,1.354-34.092,4.873-34.092,4.873l-35.173,22.183l-56.813-29.221l-19.482-71.966L384.813,3.624z" fill="none"/><path d="M359.383,379.697l-94.694-273.536c-3.248-9.468-12.173-15.963-22.455-16.502   c-2.979,0-6.224,0.271-8.931,1.354l-57.357,19.75c0,0,0-0.271-0.271-0.271l-1.895-5.681c-0.807-2.704-2.972-4.87-5.68-5.68   c-0.811-0.272-1.35-0.543-2.165-0.272l-0.54,0.272l-10.822,3.787l-1.622-4.602c-0.814-2.701-2.979-4.866-5.413-5.952   c-0.811-0.268-1.625-0.268-2.433,0h-0.272h-0.271l-22.458,7.846c-0.811,0.271-1.351,0.543-1.894,1.086   c-3.788,2.165-5.681,7.03-4.06,11.089l1.087,3.52l-7.31,2.433c-0.807,0.271-1.351,0.543-1.894,0.815   c-3.787,2.433-5.681,7.031-4.059,11.361l1.626,4.602l-54.109,18.667c-12.719,4.598-19.75,18.667-15.156,31.655l94.699,273.261   c2.433,7.035,7.846,12.715,14.877,15.151c5.145,2.166,11.097,2.166,16.506,0.272l181.541-63.042   C356.946,406.75,363.712,392.685,359.383,379.697z M342.876,407.833l-181.54,62.77c-4.87,1.626-9.74,1.626-14.337,0   c-5.685-2.166-10.554-6.764-12.719-12.986L39.588,184.083c-3.791-10.822,2.161-22.994,13.254-26.785l57.357-19.75v-0.267   c-0.271-0.815-0.811-1.626-0.811-2.166l-2.162-5.681c-0.814-2.708,0.268-5.684,2.701-7.039c0.271-0.271,0.543-0.54,1.086-0.54   l9.739-3.519l1.079-0.271c0-0.268-0.268-0.808-0.268-1.079l-2.165-5.681c-0.811-2.708,0.271-5.684,2.705-7.039   c0.271-0.268,0.542-0.539,1.086-0.539l22.723-7.846h0.271c1.622,0.54,2.976,1.894,3.516,3.519l1.896,5.681   c0.269,0.271,0.811,1.893,0.811,2.437l14.07-4.874l0.543-0.271c1.351,0.543,2.701,1.893,3.244,3.519l2.165,5.681   c0.271,0.811,0.543,2.165,0.811,4.059l3.519-1.354l57.628-19.75c2.433-1.079,5.138-1.351,7.846-1.351   c8.386,0.54,15.964,5.953,18.936,14.342l94.694,273.529C359.654,391.869,353.701,404.046,342.876,407.833z" fill="#4E5A62"/><path d="M172.429,111.574c0.271,0.811,0.543,2.165,0.811,4.059l3.519-1.354l57.628-19.75   c2.433-1.079,5.138-1.351,7.846-1.351c8.386,0.54,15.964,5.953,18.936,14.342l94.694,273.529   c3.791,10.821-2.162,22.998-12.987,26.785l-181.54,62.77c-4.87,1.626-9.74,1.626-14.337,0c-5.685-2.166-10.554-6.764-12.719-12.986   L39.588,184.083c-3.791-10.822,2.161-22.994,13.254-26.785l57.357-19.75v-0.267c-0.271-0.815-0.811-1.626-0.811-2.166l-2.162-5.681   c-0.814-2.708,0.268-5.684,2.701-7.039c0.271-0.271,0.543-0.54,1.086-0.54l9.739-3.519l1.079-0.271   c0-0.268-0.268-0.808-0.268-1.079l-2.165-5.681c-0.811-2.708,0.271-5.684,2.705-7.039c0.271-0.268,0.542-0.539,1.086-0.539   l22.723-7.846h0.271c1.622,0.54,2.976,1.894,3.516,3.519l1.896,5.681c0.269,0.271,0.811,1.893,0.811,2.437l14.07-4.874l0.543-0.271   c1.351,0.543,2.701,1.893,3.244,3.519L172.429,111.574z" fill="none"/></g></svg>