<?xml version="1.0" ?><!DOCTYPE svg  PUBLIC '-//W3C//DTD SVG 1.1//EN'  'http://www.w3.org/Graphics/SVG/1.1/DTD/svg11.dtd'><svg enable-background="new 0 0 512 512" height="512px" id="Photography" version="1.1" viewBox="0 0 512 512" width="512px" xml:space="preserve" xmlns="http://www.w3.org/2000/svg" xmlns:xlink="http://www.w3.org/1999/xlink"><circle cx="256" cy="256" fill="#9DD3AF" id="Background" r="256"/><g id="Photography_1_"><g><g><path d="M317.991,74.885l138.067-20.464c2.138-0.307,3.969,1.222,4.275,3.36l20.467,138.067     c0.307,1.833-1.223,3.972-3.359,4.276l-138.069,20.16c-1.834,0.306-3.973-1.221-4.274-3.054l-20.16-138.068     C314.631,77.025,316.155,75.192,317.991,74.885z M318.6,78.552l138.068-20.467l20.467,138.068L338.76,216.62L318.6,78.552z" fill="#5E6976"/><rect fill="#E1F5FE" height="139.587" transform="matrix(-0.9894 0.1455 -0.1455 -0.9894 811.3653 215.4538)" width="139.591" x="328.009" y="67.6"/><rect fill="#96989A" height="97.354" transform="matrix(-0.9894 0.1455 -0.1455 -0.9894 810.058 197.6418)" width="116.683" x="339.461" y="79.762"/></g><g><path d="M195.805,31.205l161.893,18.634c2.444,0.304,4.279,2.444,3.973,4.887l-18.938,162.2     c-0.308,2.444-2.444,3.971-4.89,3.666L175.95,201.958c-2.442-0.305-4.276-2.445-3.969-4.887l18.938-162.2     C191.223,32.427,193.363,30.901,195.805,31.205z M195.194,35.482l162.202,18.938l-18.939,161.894l-161.896-18.94L195.194,35.482z     " fill="#5E6976"/><rect fill="#E1F5FE" height="163.142" transform="matrix(-0.9933 -0.1156 0.1156 -0.9933 517.3904 281.7874)" width="163.141" x="185.292" y="44.326"/><rect fill="#96989A" height="113.781" transform="matrix(-0.9933 -0.1155 0.1155 -0.9933 523.9615 261.9388)" width="136.367" x="201.389" y="58.893"/></g><g><path d="M33.911,64.805L183.587,0.354c2.138-0.916,4.887,0,5.805,2.138l64.756,149.677     c0.917,2.442,0,4.887-2.442,5.802l-149.677,64.759c-2.138,0.916-4.887,0-5.805-2.138L31.468,70.61     C30.551,68.472,31.772,66.028,33.911,64.805z M35.744,69.083L185.421,4.325L250.177,154l-149.981,64.758L35.744,69.083z" fill="#5E6976"/><rect fill="#E1F5FE" height="163.14" transform="matrix(-0.918 0.3966 -0.3966 -0.918 318.1631 157.2324)" width="163.14" x="61.256" y="29.94"/><rect fill="#96989A" height="113.779" transform="matrix(-0.918 0.3966 -0.3966 -0.918 308.9495 138.9174)" width="136.369" x="71.928" y="44.51"/></g></g><g><g><path d="M91.337,296.651h5.498v-10.995c0-7.026,5.804-12.526,12.831-12.526     h95.304c7.024,0,12.829,5.5,12.829,12.526v10.995h137.459v-12.523c0-6.413,5.191-11.305,11.302-11.305h14.356     c6.413,0,11.604,4.892,11.604,11.305v12.523h17.414c10.995,0,20.466,9.165,20.466,20.468v164.947     c0,11.303-9.471,20.467-20.466,20.467H91.337c-10.995,0-20.464-9.164-20.464-20.467V317.119     C70.873,305.816,80.342,296.651,91.337,296.651z" fill="#96989A" stroke="#727376" stroke-width="3"/><path d="M363.81,273.743h29.934c2.024,0,3.666,5.744,3.666,12.829v16.191c0,7.084-1.642,12.826-3.666,12.826     H363.81c-2.025,0-3.667-5.742-3.667-12.826v-16.191C360.143,279.487,361.784,273.743,363.81,273.743z" fill="#D2D3D5"/><path d="M117.913,272.521h98.052c6.242,0,11.302,5.744,11.302,12.829v16.191c0,7.085-5.061,12.826-11.302,12.826     h-98.052c-6.242,0-11.302-5.741-11.302-12.826V285.35C106.611,278.265,111.671,272.521,117.913,272.521z" fill="#D2D3D5"/><path d="M108.444,302.456h305.458c14.849,0,26.882,9.165,26.882,20.468v164.948     c0,11.303-12.033,20.466-26.882,20.466H108.444c-14.846,0-26.88-9.163-26.88-20.466V322.924     C81.564,311.621,93.598,302.456,108.444,302.456z" fill="#BDBFC1"/><rect fill="#848688" height="17.906" width="60.259" x="103.556" y="337.585"/><rect fill="#848688" height="17.907" width="25.012" x="121.273" y="360.189"/><circle cx="388.246" cy="405.396" fill="#D2D3D5" r="15.273"/><circle cx="267.284" cy="404.786" fill="#848688" r="81.254"/><path d="M277.67,324.145c44.875,0,81.25,36.378,81.25,81.251c0,44.878-36.375,81.253-81.25,81.253     c-44.875,0-81.253-36.375-81.253-81.253C196.417,360.522,232.794,324.145,277.67,324.145z" fill="#D2D3D5"/><path d="M388.246,393.178c6.749,0,12.217,5.473,12.217,12.218c0,6.749-5.468,12.218-12.217,12.218     c-6.75,0-12.22-5.469-12.22-12.218C376.026,398.65,381.496,393.178,388.246,393.178z" fill="#A9ABAE"/><path d="M388.246,394.092c6.242,0,11.302,5.064,11.302,11.304c0,6.243-5.06,11.302-11.302,11.302     c-6.241,0-11.303-5.059-11.303-11.302C376.943,399.156,382.005,394.092,388.246,394.092z" fill="#96989A"/><path d="M277.67,334.227c39.306,0,71.17,31.863,71.17,71.169c0,39.31-31.864,71.174-71.17,71.174     c-39.31,0-71.173-31.864-71.173-71.174C206.497,366.09,238.36,334.227,277.67,334.227z" fill="#BDBFC1"/><path d="M277.67,361.106c24.462,0,44.289,19.828,44.289,44.289c0,24.464-19.827,44.294-44.289,44.294     c-24.462,0-44.293-19.83-44.293-44.294C233.377,380.935,253.208,361.106,277.67,361.106z" fill="#A9ABAE"/><path d="M131.354,278.021h71.277c4.553,0,8.247,4.102,8.247,9.165v12.031c0,5.058-3.694,9.16-8.247,9.16h-71.277     c-4.555,0-8.247-4.103-8.247-9.16v-12.031C123.106,282.122,126.799,278.021,131.354,278.021z" fill="#A9ABAE"/></g><polygon fill="#FEFEFE" points="160.678,215.093 172.59,269.77 222.686,244.722 187.251,288.102 238.266,311.927 182.061,311.314     195.194,365.689 160.982,321.394 126.467,365.689 139.601,311.314 83.395,311.927 134.102,288.407 98.669,244.722 148.765,269.77       "/><path d="M426.121,299.403c-4.276-4.276-10.08-6.413-16.187-6.413h-8.858v-7.641    c0-8.244-6.418-14.662-14.054-15.273c-2.138-0.611-3.969-1.223-6.106-1.223H366.56c-8.248,0-14.969,7.027-14.969,15.274v8.862    H230.934v-7.641c0-9.166-7.331-16.803-16.495-16.803h-6.416l17.718-21.38c1.222-1.222,1.222-3.359,0-4.582    c-1.222-1.529-3.056-1.833-4.582-1.222l-46.125,22.909l-10.691-50.096c-0.305-1.831-1.833-3.054-3.665-3.054    c-1.833,0-3.36,1.223-3.667,3.054l-10.69,50.096l-45.818-22.909c-1.833-0.611-3.667-0.307-4.583,1.222    c-1.222,1.223-1.222,3.36,0,4.582l17.718,21.992h-3.971c-9.164,0-16.496,7.641-16.496,16.498v7.334h-1.833    c-13.133,0-24.131,10.688-24.131,24.129v164.947c0,10.997,7.638,20.773,18.634,23.521c4.275,3.974,10.08,6.413,16.189,6.413    h318.595c13.137,0,24.132-10.995,24.132-24.128V322.924C444.756,311.621,437.121,302.15,426.121,299.403z M441.09,487.872    c0,11.303-9.466,20.466-20.466,20.466H102.029c-5.498,0-10.692-2.443-14.357-6.11c-9.468-1.832-16.799-10.388-16.799-20.161    V317.119c0-11.303,9.469-20.468,20.464-20.468h5.498v-10.995c0-7.026,5.804-12.526,12.831-12.526h5.803    c1.222-0.609,2.444-0.609,3.971-0.609h1.833l-22.604-27.798l50.096,25.047l11.914-54.677l11.912,54.677l50.096-25.047    l-22.603,27.798h14.356c7.024,0,12.829,5.5,12.829,12.829v11.302h127.99v-12.523c0-6.413,5.191-11.305,11.302-11.305h14.356    c1.83,0,3.662,0.307,5.191,0.92c6.11,0.302,11.302,5.193,11.302,11.606v11.302h12.525c5.498,0,10.689,2.445,14.355,6.112    c9.471,1.831,16.8,10.387,16.8,20.16V487.872z" fill="#5E6976"/></g></g></svg>