<?xml version="1.0" encoding="iso-8859-1"?>
<!-- Generator: Adobe Illustrator 19.0.0, SVG Export Plug-In . SVG Version: 6.00 Build 0)  -->
<svg version="1.1" id="Layer_1" xmlns="http://www.w3.org/2000/svg" xmlns:xlink="http://www.w3.org/1999/xlink" x="0px" y="0px"
	 viewBox="0 0 512 512" style="enable-background:new 0 0 512 512;" xml:space="preserve">
<path style="fill:#34495E;" d="M512,256c0,141.389-114.611,256-256,256S0,397.389,0,256C0,114.609,114.611,0,256,0
	S512,114.609,512,256z"/>
<path style="fill:#203549;" d="M511.544,270.812L367.941,127.194l-9.692,2.452l-9.06,2.271l-0.008-0.005l-44.07,11.08
	c-5.156,1.285-8.3,6.51-6.986,11.704c0.182,0.73,0.456,1.4,0.786,2.043c0.064,0.131,0.148,0.236,0.22,0.358
	c0.323,0.566,0.681,1.078,1.096,1.554c0.013,0.008,0.013,0.02,0.02,0.028l0.077,0.074c0.31,0.348,0.64,0.684,1.006,0.986
	c0.077,0.077,0.148,0.156,0.238,0.218l20.173,20.168c-24.707,27.712-59.277,53.399-99.348,73.055
	c-28.634,14.044-57.779,23.997-86.561,29.586c-5.233,0.983-8.671,6.075-7.649,11.3c0.33,1.72,1.103,3.226,2.163,4.467
	c0,0,0.036,0,0.036,0.036l0.947,0.947c0.077,0.069,0.148,0.105,0.22,0.182l34.481,34.519c-21.056,0.335-37.806,6.909-37.806,15.035
	v9.434c0,0.294,0.069,0.556,0.105,0.806c-0.036,0.261-0.105,0.512-0.105,0.765v9.475c0,1.426,0.509,2.783,1.459,4.06l2.417,2.45
	c0.036,0.036,0.108,0.069,0.143,0.105l135.352,135.357C398.674,505.856,504.084,401.462,511.544,270.812z"/>
<path style="fill:#5D6D7E;" d="M375.094,360.271c-7.219-3.4-18.263-5.571-30.623-5.571c-12.396,0-23.434,2.171-30.656,5.571h-8.781
	v9.459c0,8.302,17.628,15.066,39.434,15.066c21.75,0,39.401-6.764,39.401-15.066v-9.459H375.094z"/>
<path id="SVGCleanerId_0" style="fill:#B8D1E6;" d="M305.034,360.271v7.396c0,8.302,17.628,15.058,39.434,15.058
	c21.75,0,39.401-6.756,39.401-15.058v-7.396L305.034,360.271L305.034,360.271z"/>
<g>
	<path id="SVGCleanerId_0_1_" style="fill:#B8D1E6;" d="M305.034,360.271v7.396c0,8.302,17.628,15.058,39.434,15.058
		c21.75,0,39.401-6.756,39.401-15.058v-7.396L305.034,360.271L305.034,360.271z"/>
</g>
<path style="fill:#B8D1E6;" d="M383.869,360.271c0,8.307-17.651,15.058-39.401,15.058c-21.809,0-39.434-6.751-39.434-15.058
	c0-8.315,17.628-15.037,39.434-15.037C366.221,345.234,383.869,351.956,383.869,360.271z"/>
<path style="fill:#F2F9FF;" d="M344.471,373.757c-22.643,0-37.855-6.968-37.855-13.486c0-6.49,15.212-13.458,37.855-13.458
	c22.623,0,37.819,6.968,37.819,13.458C382.29,366.651,366.756,373.757,344.471,373.757z"/>
<path style="fill:#B8D1E6;" d="M342.413,368.666c-6.572-0.197-11.482-1.196-14.868-2.534l4.219-2.212
	c2.345,0.998,6.054,1.917,10.647,2.189v-4.726c-6.572-0.632-13.463-1.539-13.463-4.705c0-2.473,5.225-4.447,13.463-4.721v-2.235
	h5.092v2.255c5.174,0.225,9.516,1.006,12.831,2.227l-4.206,2.112c-2.429-0.924-5.489-1.487-8.625-1.736v4.221
	c6.643,0.653,13.855,1.6,13.855,4.867c0,2.486-4.283,4.669-13.855,4.992v2.186h-5.092v-2.181H342.413z M342.413,358.285v-3.82
	c-3.574,0.174-5.809,0.927-5.809,1.999C336.604,357.414,339.028,357.898,342.413,358.285z M347.505,361.894v4.234
	c4.419-0.253,6.195-1.242,6.195-2.191C353.7,362.842,351.03,362.309,347.505,361.894z"/>
<g>
	<path style="fill:#F2F9FF;" d="M307.459,362.921v9.946c0.745,0.781,1.672,1.526,2.732,2.24v-9.321
		C308.974,364.864,308.047,363.901,307.459,362.921z"/>
	<path style="fill:#F2F9FF;" d="M378.004,366.228v9.329c1.039-0.64,1.969-1.313,2.747-2.015v-9.7
		C380.058,364.646,379.139,365.448,378.004,366.228z"/>
	<path style="fill:#F2F9FF;" d="M312.325,367.224v9.152c0.85,0.463,1.761,0.906,2.752,1.321v-9.075
		C314.076,368.172,313.16,367.703,312.325,367.224z"/>
	<path style="fill:#F2F9FF;" d="M317.207,369.516v9.024c0.878,0.315,1.789,0.625,2.737,0.911v-8.998
		C318.989,370.161,318.077,369.838,317.207,369.516z"/>
</g>
<path style="fill:#5D6D7E;" d="M375.094,349.24c-7.219-3.4-18.263-5.578-30.623-5.578c-12.396,0-23.434,2.179-30.656,5.578h-8.781
	v9.452c0,8.307,17.628,15.058,39.434,15.058c21.75,0,39.401-6.751,39.401-15.058v-9.452H375.094z"/>
<path id="SVGCleanerId_1" style="fill:#B8D1E6;" d="M305.034,349.24v7.388c0,8.302,17.628,15.05,39.434,15.05
	c21.75,0,39.401-6.748,39.401-15.05v-7.388H305.034z"/>
<g>
	<path id="SVGCleanerId_1_1_" style="fill:#B8D1E6;" d="M305.034,349.24v7.388c0,8.302,17.628,15.05,39.434,15.05
		c21.75,0,39.401-6.748,39.401-15.05v-7.388H305.034z"/>
</g>
<path style="fill:#B8D1E6;" d="M383.869,349.24c0,8.307-17.651,15.058-39.401,15.058c-21.809,0-39.434-6.751-39.434-15.058
	c0-8.317,17.628-15.037,39.434-15.037C366.221,334.203,383.869,340.923,383.869,349.24z"/>
<path style="fill:#F2F9FF;" d="M344.471,362.719c-22.643,0-37.855-6.976-37.855-13.478c0-6.505,15.212-13.458,37.855-13.458
	c22.623,0,37.819,6.953,37.819,13.458C382.29,355.615,366.756,362.719,344.471,362.719z"/>
<path style="fill:#B8D1E6;" d="M342.413,357.624c-6.572-0.197-11.482-1.195-14.868-2.527l4.219-2.22
	c2.345,1.006,6.054,1.925,10.647,2.196v-4.733c-6.572-0.625-13.463-1.533-13.463-4.7c0-2.478,5.225-4.46,13.463-4.721v-2.245h5.092
	v2.268c5.174,0.218,9.516,0.998,12.831,2.22l-4.206,2.112c-2.429-0.919-5.489-1.482-8.625-1.728v4.214
	c6.643,0.66,13.855,1.608,13.855,4.867c0,2.486-4.283,4.675-13.855,4.992v2.189h-5.092v-2.184H342.413z M342.413,347.254v-3.822
	c-3.574,0.169-5.809,0.927-5.809,2.002C336.604,346.381,339.028,346.865,342.413,347.254z M347.505,350.863v4.234
	c4.419-0.256,6.195-1.244,6.195-2.199C353.7,351.811,351.03,351.276,347.505,350.863z"/>
<g>
	<path style="fill:#F2F9FF;" d="M307.459,351.887v9.938c0.745,0.786,1.672,1.523,2.732,2.24v-9.313
		C308.974,353.825,308.047,352.863,307.459,351.887z"/>
	<path style="fill:#F2F9FF;" d="M378.004,355.187v9.334c1.039-0.64,1.969-1.316,2.747-2.022v-9.7
		C380.058,353.615,379.139,354.414,378.004,355.187z"/>
	<path style="fill:#F2F9FF;" d="M312.325,356.178v9.165c0.85,0.458,1.761,0.901,2.752,1.316v-9.075
		C314.076,357.133,313.16,356.662,312.325,356.178z"/>
	<path style="fill:#F2F9FF;" d="M317.207,358.474v9.024c0.878,0.323,1.789,0.632,2.737,0.911v-8.991
		C318.989,359.112,318.077,358.804,317.207,358.474z"/>
</g>
<path style="fill:#5D6D7E;" d="M375.094,338.196c-7.219-3.405-18.263-5.568-30.623-5.568c-12.396,0-23.434,2.163-30.656,5.568
	h-8.781v9.462c0,8.307,17.628,15.058,39.434,15.058c21.75,0,39.401-6.751,39.401-15.058v-9.462H375.094z"/>
<path id="SVGCleanerId_2" style="fill:#B8D1E6;" d="M305.034,338.196v7.391c0,8.307,17.628,15.058,39.434,15.058
	c21.75,0,39.401-6.751,39.401-15.058v-7.391H305.034z"/>
<g>
	<path id="SVGCleanerId_2_1_" style="fill:#B8D1E6;" d="M305.034,338.196v7.391c0,8.307,17.628,15.058,39.434,15.058
		c21.75,0,39.401-6.751,39.401-15.058v-7.391H305.034z"/>
</g>
<path style="fill:#B8D1E6;" d="M383.869,338.196c0,8.31-17.651,15.06-39.401,15.06c-21.809,0-39.434-6.751-39.434-15.06
	c0-8.323,17.628-15.035,39.434-15.035C366.221,323.162,383.869,329.874,383.869,338.196z"/>
<path style="fill:#F2F9FF;" d="M344.471,351.683c-22.643,0-37.855-6.973-37.855-13.486c0-6.495,15.212-13.455,37.855-13.455
	c22.623,0,37.819,6.961,37.819,13.455C382.29,344.576,366.756,351.683,344.471,351.683z"/>
<path style="fill:#B8D1E6;" d="M342.413,346.586c-6.572-0.197-11.482-1.188-14.868-2.529l4.219-2.217
	c2.345,0.998,6.054,1.923,10.647,2.189v-4.726c-6.572-0.625-13.463-1.533-13.463-4.692c0-2.481,5.225-4.46,13.463-4.736v-2.232
	h5.092v2.271c5.174,0.218,9.516,0.996,12.831,2.217l-4.206,2.115c-2.429-0.927-5.489-1.49-8.625-1.728v4.214
	c6.643,0.648,13.855,1.603,13.855,4.859c0,2.488-4.283,4.685-13.855,4.995v2.196h-5.092v-2.194H342.413z M342.413,336.218v-3.835
	c-3.574,0.182-5.809,0.934-5.809,2.002C336.604,335.34,339.028,335.826,342.413,336.218z M347.505,339.82v4.234
	c4.419-0.246,6.195-1.242,6.195-2.189C353.7,340.769,351.03,340.227,347.505,339.82z"/>
<g>
	<path style="fill:#F2F9FF;" d="M307.459,340.854v9.933c0.745,0.781,1.672,1.531,2.732,2.248v-9.313
		C308.974,342.784,308.047,341.821,307.459,340.854z"/>
	<path style="fill:#F2F9FF;" d="M378.004,344.156v9.334c1.039-0.645,1.969-1.321,2.747-2.022v-9.697
		C380.058,342.579,379.139,343.383,378.004,344.156z"/>
	<path style="fill:#F2F9FF;" d="M312.325,345.144v9.165c0.85,0.458,1.761,0.893,2.752,1.313v-9.08
		C314.076,346.092,313.16,345.631,312.325,345.144z"/>
	<path style="fill:#F2F9FF;" d="M317.207,347.435v9.029c0.878,0.317,1.789,0.62,2.737,0.914v-8.998
		C318.989,348.081,318.077,347.766,317.207,347.435z"/>
</g>
<path style="fill:#5D6D7E;" d="M375.094,327.158c-7.219-3.397-18.263-5.568-30.623-5.568c-12.396,0-23.434,2.171-30.656,5.568
	h-8.781v9.467c0,8.302,17.628,15.058,39.434,15.058c21.75,0,39.401-6.756,39.401-15.058v-9.467L375.094,327.158L375.094,327.158z"/>
<path id="SVGCleanerId_3" style="fill:#B8D1E6;" d="M305.034,327.158v7.396c0,8.302,17.628,15.06,39.434,15.06
	c21.75,0,39.401-6.758,39.401-15.06v-7.396H305.034z"/>
<g>
	<path id="SVGCleanerId_3_1_" style="fill:#B8D1E6;" d="M305.034,327.158v7.396c0,8.302,17.628,15.06,39.434,15.06
		c21.75,0,39.401-6.758,39.401-15.06v-7.396H305.034z"/>
</g>
<path style="fill:#B8D1E6;" d="M383.869,327.158c0,8.31-17.651,15.066-39.401,15.066c-21.809,0-39.434-6.756-39.434-15.066
	c0-8.315,17.628-15.027,39.434-15.027C366.221,312.131,383.869,318.843,383.869,327.158z"/>
<path style="fill:#F2F9FF;" d="M344.471,340.641c-22.643,0-37.855-6.968-37.855-13.486c0-6.487,15.212-13.455,37.855-13.455
	c22.623,0,37.819,6.968,37.819,13.455C382.29,333.535,366.756,340.641,344.471,340.641z"/>
<path style="fill:#B8D1E6;" d="M342.413,335.549c-6.572-0.195-11.482-1.193-14.868-2.534l4.219-2.212
	c2.345,0.998,6.054,1.917,10.647,2.191v-4.728c-6.572-0.632-13.463-1.539-13.463-4.698c0-2.481,5.225-4.452,13.463-4.728v-2.232
	h5.092v2.26c5.174,0.218,9.516,1.006,12.831,2.22l-4.206,2.115c-2.429-0.927-5.489-1.482-8.625-1.736v4.214
	c6.643,0.66,13.855,1.61,13.855,4.874c0,2.486-4.283,4.669-13.855,4.992v2.186h-5.092v-2.184H342.413z M342.413,325.176v-3.827
	c-3.574,0.174-5.809,0.927-5.809,2.002C336.604,324.301,339.028,324.785,342.413,325.176z M347.505,328.781v4.234
	c4.419-0.246,6.195-1.242,6.195-2.184C353.7,329.731,351.03,329.195,347.505,328.781z"/>
<g>
	<path style="fill:#F2F9FF;" d="M307.459,329.805v9.946c0.745,0.781,1.672,1.533,2.732,2.24v-9.313
		C308.974,331.753,308.047,330.79,307.459,329.805z"/>
	<path style="fill:#F2F9FF;" d="M378.004,333.115v9.326c1.039-0.637,1.969-1.313,2.747-2.007v-9.7
		C380.058,331.533,379.139,332.334,378.004,333.115z"/>
	<path style="fill:#F2F9FF;" d="M312.325,334.111v9.16c0.85,0.463,1.761,0.899,2.752,1.313v-9.073
		C314.076,335.06,313.16,334.589,312.325,334.111z"/>
	<path style="fill:#F2F9FF;" d="M317.207,336.399v9.032c0.878,0.31,1.789,0.617,2.737,0.906v-8.996
		C318.989,337.047,318.077,336.73,317.207,336.399z"/>
</g>
<path style="fill:#5D6D7E;" d="M375.094,316.124c-7.219-3.4-18.263-5.578-30.623-5.578c-12.396,0-23.434,2.179-30.656,5.578h-8.781
	v9.452c0,8.31,17.628,15.058,39.434,15.058c21.75,0,39.401-6.748,39.401-15.058v-9.452H375.094L375.094,316.124z"/>
<path id="SVGCleanerId_4" style="fill:#B8D1E6;" d="M305.034,316.124v7.388c0,8.31,17.628,15.058,39.434,15.058
	c21.75,0,39.401-6.748,39.401-15.058v-7.388H305.034L305.034,316.124z"/>
<g>
	<path id="SVGCleanerId_4_1_" style="fill:#B8D1E6;" d="M305.034,316.124v7.388c0,8.31,17.628,15.058,39.434,15.058
		c21.75,0,39.401-6.748,39.401-15.058v-7.388H305.034L305.034,316.124z"/>
</g>
<path style="fill:#B8D1E6;" d="M383.869,316.124c0,8.302-17.651,15.058-39.401,15.058c-21.809,0-39.434-6.756-39.434-15.058
	c0-8.315,17.628-15.037,39.434-15.037C366.221,301.087,383.869,307.809,383.869,316.124z"/>
<path style="fill:#F2F9FF;" d="M344.471,329.603c-22.643,0-37.855-6.976-37.855-13.478s15.212-13.458,37.855-13.458
	c22.623,0,37.819,6.956,37.819,13.458C382.29,322.504,366.756,329.603,344.471,329.603z"/>
<path style="fill:#B8D1E6;" d="M342.413,324.511c-6.572-0.195-11.482-1.193-14.868-2.527l4.219-2.22
	c2.345,1.006,6.054,1.925,10.647,2.196v-4.733c-6.572-0.625-13.463-1.531-13.463-4.698c0-2.481,5.225-4.452,13.463-4.721v-2.24
	h5.092v2.26c5.174,0.218,9.516,0.998,12.831,2.22l-4.206,2.115c-2.429-0.919-5.489-1.482-8.625-1.731v4.214
	c6.643,0.66,13.855,1.608,13.855,4.874c0,2.478-4.283,4.669-13.855,4.984v2.191h-5.092v-2.186H342.413z M342.413,314.138v-3.82
	c-3.574,0.166-5.809,0.927-5.809,1.999C336.604,313.267,339.028,313.751,342.413,314.138z M347.505,317.747v4.234
	c4.419-0.253,6.195-1.242,6.195-2.197C353.7,318.694,351.03,318.162,347.505,317.747z"/>
<g>
	<path style="fill:#F2F9FF;" d="M307.459,318.774v9.938c0.745,0.788,1.672,1.526,2.732,2.24v-9.313
		C308.974,320.709,308.047,319.749,307.459,318.774z"/>
	<path style="fill:#F2F9FF;" d="M378.004,322.081v9.329c1.039-0.64,1.969-1.313,2.747-2.022v-9.7
		C380.058,320.499,379.139,321.3,378.004,322.081z"/>
	<path style="fill:#F2F9FF;" d="M312.325,323.069v9.16c0.85,0.456,1.761,0.899,2.752,1.313v-9.068
		C314.076,324.024,313.16,323.548,312.325,323.069z"/>
	<path style="fill:#F2F9FF;" d="M317.207,325.361v9.024c0.878,0.323,1.789,0.632,2.737,0.911v-8.991
		C318.989,326.001,318.077,325.683,317.207,325.361z"/>
</g>
<path style="fill:#5D6D7E;" d="M375.094,305.085c-7.219-3.407-18.263-5.571-30.623-5.571c-12.396,0-23.434,2.163-30.656,5.571
	h-8.781v9.459c0,8.307,17.628,15.058,39.434,15.058c21.75,0,39.401-6.751,39.401-15.058v-9.459H375.094z"/>
<path id="SVGCleanerId_5" style="fill:#B8D1E6;" d="M305.034,305.085v7.396c0,8.302,17.628,15.05,39.434,15.05
	c21.75,0,39.401-6.748,39.401-15.05v-7.396H305.034z"/>
<g>
	<path id="SVGCleanerId_5_1_" style="fill:#B8D1E6;" d="M305.034,305.085v7.396c0,8.302,17.628,15.05,39.434,15.05
		c21.75,0,39.401-6.748,39.401-15.05v-7.396H305.034z"/>
</g>
<path style="fill:#B8D1E6;" d="M383.869,305.085c0,8.307-17.651,15.058-39.401,15.058c-21.809,0-39.434-6.751-39.434-15.058
	c0-8.31,17.628-15.037,39.434-15.037C366.221,290.048,383.869,296.776,383.869,305.085z"/>
<path style="fill:#F2F9FF;" d="M344.471,318.569c-22.643,0-37.855-6.976-37.855-13.486c0-6.497,15.212-13.458,37.855-13.458
	c22.623,0,37.819,6.961,37.819,13.458C382.29,311.462,366.756,318.569,344.471,318.569z"/>
<path style="fill:#B8D1E6;" d="M342.413,313.469c-6.572-0.189-11.482-1.188-14.868-2.527l4.219-2.212
	c2.345,0.998,6.054,1.917,10.647,2.186v-4.728c-6.572-0.625-13.463-1.533-13.463-4.692c0-2.478,5.225-4.46,13.463-4.721v-2.245
	h5.092v2.268c5.174,0.218,9.516,0.998,12.831,2.22l-4.206,2.112c-2.429-0.919-5.489-1.487-8.625-1.728v4.214
	c6.643,0.653,13.855,1.608,13.855,4.859c0,2.486-4.283,4.682-13.855,4.992v2.196h-5.092v-2.194H342.413z M342.413,303.104v-3.827
	c-3.574,0.174-5.809,0.932-5.809,1.992C336.604,302.234,339.028,302.71,342.413,303.104z M347.505,306.708v4.234
	c4.419-0.248,6.195-1.242,6.195-2.191C353.7,307.656,351.03,307.121,347.505,306.708z"/>
<g>
	<path style="fill:#F2F9FF;" d="M307.459,307.74v9.93c0.745,0.781,1.672,1.531,2.732,2.248v-9.321
		C308.974,309.67,308.047,308.708,307.459,307.74z"/>
	<path style="fill:#F2F9FF;" d="M378.004,311.04v9.334c1.039-0.648,1.969-1.324,2.747-2.022v-9.7
		C380.058,309.468,379.139,310.267,378.004,311.04z"/>
	<path style="fill:#F2F9FF;" d="M312.325,312.031v9.165c0.85,0.458,1.761,0.893,2.752,1.316v-9.083
		C314.076,312.978,313.16,312.515,312.325,312.031z"/>
	<path style="fill:#F2F9FF;" d="M317.207,314.319v9.032c0.878,0.323,1.789,0.625,2.737,0.911v-8.991
		C318.989,314.964,318.077,314.65,317.207,314.319z"/>
</g>
<path style="fill:#5D6D7E;" d="M375.094,294.044c-7.219-3.4-18.263-5.571-30.623-5.571c-12.396,0-23.434,2.171-30.656,5.571h-8.781
	v9.467c0,8.3,17.628,15.058,39.434,15.058c21.75,0,39.401-6.758,39.401-15.058v-9.467L375.094,294.044L375.094,294.044z"/>
<path id="SVGCleanerId_6" style="fill:#B8D1E6;" d="M305.034,294.044v7.396c0,8.299,17.628,15.058,39.434,15.058
	c21.75,0,39.401-6.758,39.401-15.058v-7.396H305.034z"/>
<g>
	<path id="SVGCleanerId_6_1_" style="fill:#B8D1E6;" d="M305.034,294.044v7.396c0,8.299,17.628,15.058,39.434,15.058
		c21.75,0,39.401-6.758,39.401-15.058v-7.396H305.034z"/>
</g>
<path style="fill:#B8D1E6;" d="M383.869,294.044c0,8.307-17.651,15.066-39.401,15.066c-21.809,0-39.434-6.758-39.434-15.066
	c0-8.315,17.628-15.03,39.434-15.03C366.221,279.014,383.869,285.729,383.869,294.044z"/>
<path style="fill:#F2F9FF;" d="M344.471,307.528c-22.643,0-37.855-6.966-37.855-13.484c0-6.497,15.212-13.458,37.855-13.458
	c22.623,0,37.819,6.961,37.819,13.458C382.29,300.421,366.756,307.528,344.471,307.528z"/>
<path style="fill:#B8D1E6;" d="M342.413,302.438c-6.572-0.197-11.482-1.196-14.868-2.534l4.219-2.212
	c2.345,0.998,6.054,1.917,10.647,2.189v-4.726c-6.572-0.625-13.463-1.533-13.463-4.7c0-2.481,5.225-4.452,13.463-4.726v-2.235h5.092
	v2.263c5.174,0.225,9.516,1.004,12.831,2.217l-4.206,2.115c-2.429-0.927-5.489-1.482-8.625-1.728v4.214
	c6.643,0.653,13.855,1.6,13.855,4.864c0,2.488-4.283,4.677-13.855,4.995v2.189h-5.092v-2.184H342.413z M342.413,292.063v-3.827
	c-3.574,0.177-5.809,0.927-5.809,2.002C336.604,291.185,339.028,291.671,342.413,292.063z M347.505,295.667v4.234
	c4.419-0.248,6.195-1.244,6.195-2.186C353.7,296.622,351.03,296.079,347.505,295.667z"/>
<g>
	<path style="fill:#F2F9FF;" d="M307.459,296.694v9.946c0.745,0.778,1.672,1.531,2.732,2.24v-9.313
		C308.974,298.637,308.047,297.674,307.459,296.694z"/>
	<path style="fill:#F2F9FF;" d="M378.004,300.001v9.329c1.039-0.64,1.969-1.316,2.747-2.01v-9.697
		C380.058,298.427,379.139,299.228,378.004,300.001z"/>
	<path style="fill:#F2F9FF;" d="M312.325,300.997v9.157c0.85,0.466,1.761,0.901,2.752,1.321v-9.08
		C314.076,301.944,313.16,301.484,312.325,300.997z"/>
	<path style="fill:#F2F9FF;" d="M317.207,303.288v9.029c0.878,0.31,1.789,0.62,2.737,0.914v-9.006
		C318.989,303.933,318.077,303.619,317.207,303.288z"/>
</g>
<path style="fill:#5D6D7E;" d="M375.094,283.011c-7.219-3.397-18.263-5.576-30.623-5.576c-12.396,0-23.434,2.179-30.656,5.576
	h-8.781v9.459c0,8.31,17.628,15.058,39.434,15.058c21.75,0,39.401-6.748,39.401-15.058v-9.459H375.094z"/>
<path id="SVGCleanerId_7" style="fill:#B8D1E6;" d="M305.034,283.011v7.391c0,8.307,17.628,15.058,39.434,15.058
	c21.75,0,39.401-6.751,39.401-15.058v-7.391H305.034z"/>
<g>
	<path id="SVGCleanerId_7_1_" style="fill:#B8D1E6;" d="M305.034,283.011v7.391c0,8.307,17.628,15.058,39.434,15.058
		c21.75,0,39.401-6.751,39.401-15.058v-7.391H305.034z"/>
</g>
<path style="fill:#B8D1E6;" d="M383.869,283.011c0,8.302-17.651,15.058-39.401,15.058c-21.809,0-39.434-6.756-39.434-15.058
	c0-8.315,17.628-15.035,39.434-15.035C366.221,267.976,383.869,274.696,383.869,283.011z"/>
<path style="fill:#F2F9FF;" d="M344.471,296.486c-22.643,0-37.855-6.968-37.855-13.478c0-6.502,15.212-13.455,37.855-13.455
	c22.623,0,37.819,6.953,37.819,13.455C382.29,289.388,366.756,296.486,344.471,296.486z"/>
<path style="fill:#B8D1E6;" d="M342.413,291.397c-6.572-0.197-11.482-1.188-14.868-2.529l4.219-2.217
	c2.345,1.004,6.054,1.923,10.647,2.197v-4.736c-6.572-0.625-13.463-1.531-13.463-4.69c0-2.488,5.225-4.46,13.463-4.728v-2.24h5.092
	v2.268c5.174,0.212,9.516,0.998,12.831,2.212l-4.206,2.115c-2.429-0.919-5.489-1.475-8.625-1.728v4.214
	c6.643,0.66,13.855,1.61,13.855,4.874c0,2.486-4.283,4.669-13.855,4.987v2.189h-5.092v-2.186H342.413z M342.413,281.029v-3.827
	c-3.574,0.166-5.809,0.927-5.809,2.002C336.604,280.154,339.028,280.637,342.413,281.029z M347.505,284.634v4.234
	c4.419-0.246,6.195-1.242,6.195-2.196C353.7,285.581,351.03,285.048,347.505,284.634z"/>
<g>
	<path style="fill:#F2F9FF;" d="M307.459,285.658v9.946c0.745,0.781,1.672,1.526,2.732,2.235v-9.308
		C308.974,287.606,308.047,286.636,307.459,285.658z"/>
	<path style="fill:#F2F9FF;" d="M378.004,288.968v9.326c1.039-0.637,1.969-1.313,2.747-2.015v-9.705
		C380.058,287.386,379.139,288.187,378.004,288.968z"/>
	<path style="fill:#F2F9FF;" d="M312.325,289.958v9.165c0.85,0.456,1.761,0.893,2.752,1.306v-9.065
		C314.076,290.913,313.16,290.435,312.325,289.958z"/>
	<path style="fill:#F2F9FF;" d="M317.207,292.244v9.024c0.878,0.325,1.789,0.632,2.737,0.914v-8.991
		C318.989,292.892,318.077,292.577,317.207,292.244z"/>
</g>
<path style="fill:#5D6D7E;" d="M375.094,271.969c-7.219-3.4-18.263-5.571-30.623-5.571c-12.396,0-23.434,2.171-30.656,5.571h-8.781
	v9.459c0,8.31,17.628,15.058,39.434,15.058c21.75,0,39.401-6.748,39.401-15.058v-9.459H375.094z"/>
<path id="SVGCleanerId_8" style="fill:#B8D1E6;" d="M305.034,271.969v7.396c0,8.31,17.628,15.058,39.434,15.058
	c21.75,0,39.401-6.748,39.401-15.058v-7.396H305.034z"/>
<g>
	<path id="SVGCleanerId_8_1_" style="fill:#B8D1E6;" d="M305.034,271.969v7.396c0,8.31,17.628,15.058,39.434,15.058
		c21.75,0,39.401-6.748,39.401-15.058v-7.396H305.034z"/>
</g>
<path style="fill:#B8D1E6;" d="M383.869,271.969c0,8.31-17.651,15.058-39.401,15.058c-21.809,0-39.434-6.748-39.434-15.058
	c0-8.315,17.628-15.035,39.434-15.035C366.221,256.934,383.869,263.654,383.869,271.969z"/>
<path style="fill:#F2F9FF;" d="M344.471,285.448c-22.643,0-37.855-6.968-37.855-13.478c0-6.495,15.212-13.453,37.855-13.453
	c22.623,0,37.819,6.958,37.819,13.453C382.29,278.346,366.756,285.448,344.471,285.448z"/>
<path style="fill:#B8D1E6;" d="M342.413,280.356c-6.572-0.187-11.482-1.193-14.868-2.527l4.219-2.212
	c2.345,0.998,6.054,1.917,10.647,2.186v-4.728c-6.572-0.625-13.463-1.531-13.463-4.69c0-2.481,5.225-4.46,13.463-4.728v-2.24h5.092
	v2.268c5.174,0.218,9.516,0.998,12.831,2.22l-4.206,2.115c-2.429-0.919-5.489-1.49-8.625-1.731v4.214
	c6.643,0.653,13.855,1.608,13.855,4.867c0,2.481-4.283,4.677-13.855,4.984v2.199h-5.092v-2.196H342.413z M342.413,269.99v-3.827
	c-3.574,0.174-5.809,0.934-5.809,1.994C336.604,269.12,339.028,269.601,342.413,269.99z M347.505,273.592v4.234
	c4.419-0.246,6.195-1.242,6.195-2.189C353.7,274.54,351.03,274.007,347.505,273.592z"/>
<g>
	<path style="fill:#F2F9FF;" d="M307.459,274.624v9.93c0.745,0.781,1.672,1.533,2.732,2.248v-9.321
		C308.974,276.557,308.047,275.602,307.459,274.624z"/>
	<path style="fill:#F2F9FF;" d="M378.004,277.932v9.329c1.039-0.648,1.969-1.321,2.747-2.022v-9.7
		C380.058,276.352,379.139,277.153,378.004,277.932z"/>
	<path style="fill:#F2F9FF;" d="M312.325,278.917v9.165c0.85,0.456,1.761,0.899,2.752,1.313v-9.075
		C314.076,279.872,313.16,279.401,312.325,278.917z"/>
	<path style="fill:#F2F9FF;" d="M317.207,281.206v9.032c0.878,0.323,1.789,0.625,2.737,0.911v-8.991
		C318.989,281.853,318.077,281.536,317.207,281.206z"/>
</g>
<path style="fill:#5D6D7E;" d="M375.094,260.931c-7.219-3.402-18.263-5.571-30.623-5.571c-12.396,0-23.434,2.171-30.656,5.571
	h-8.781v9.467c0,8.3,17.628,15.05,39.434,15.05c21.75,0,39.401-6.751,39.401-15.05v-9.467H375.094z"/>
<path id="SVGCleanerId_9" style="fill:#B8D1E6;" d="M305.034,260.931v7.396c0,8.302,17.628,15.058,39.434,15.058
	c21.75,0,39.401-6.756,39.401-15.058v-7.396H305.034z"/>
<g>
	<path id="SVGCleanerId_9_1_" style="fill:#B8D1E6;" d="M305.034,260.931v7.396c0,8.302,17.628,15.058,39.434,15.058
		c21.75,0,39.401-6.756,39.401-15.058v-7.396H305.034z"/>
</g>
<path style="fill:#B8D1E6;" d="M383.869,260.931c0,8.307-17.651,15.066-39.401,15.066c-21.809,0-39.434-6.758-39.434-15.066
	c0-8.307,17.628-15.032,39.434-15.032C366.221,245.898,383.869,252.623,383.869,260.931z"/>
<path style="fill:#F2F9FF;" d="M344.471,274.414c-22.643,0-37.855-6.968-37.855-13.486c0-6.495,15.212-13.458,37.855-13.458
	c22.623,0,37.819,6.963,37.819,13.458C382.29,267.308,366.756,274.414,344.471,274.414z"/>
<path style="fill:#5D6D7E;" d="M342.413,269.322c-6.572-0.197-11.482-1.196-14.868-2.534l4.219-2.212
	c2.345,0.998,6.054,1.917,10.647,2.189v-4.726c-6.572-0.625-13.463-1.533-13.463-4.698c0-2.486,5.225-4.457,13.463-4.718v-2.243
	h5.092v2.266c5.174,0.22,9.516,1.001,12.831,2.212l-4.206,2.117c-2.429-0.922-5.489-1.482-8.625-1.723v4.214
	c6.643,0.658,13.855,1.605,13.855,4.864c0,2.486-4.283,4.677-13.855,4.992v2.191h-5.092v-2.191H342.413z M342.413,258.949v-3.83
	c-3.574,0.177-5.809,0.932-5.809,2.002C336.604,258.074,339.028,258.557,342.413,258.949z M347.505,262.554v4.234
	c4.419-0.246,6.195-1.242,6.195-2.186C353.7,263.508,351.03,262.968,347.505,262.554z"/>
<g>
	<path style="fill:#F2F9FF;" d="M307.459,263.578v9.946c0.745,0.781,1.672,1.531,2.732,2.24v-9.313
		C308.974,265.523,308.047,264.561,307.459,263.578z"/>
	<path style="fill:#F2F9FF;" d="M378.004,266.885v9.334c1.039-0.64,1.969-1.321,2.747-2.015v-9.7
		C380.058,265.313,379.139,266.112,378.004,266.885z"/>
	<path style="fill:#F2F9FF;" d="M312.325,267.884v9.157c0.85,0.466,1.761,0.901,2.752,1.324v-9.083
		C314.076,268.831,313.16,268.367,312.325,267.884z"/>
	<path style="fill:#F2F9FF;" d="M317.207,270.172v9.032c0.878,0.315,1.789,0.617,2.737,0.911v-9.006
		C318.989,270.817,318.077,270.502,317.207,270.172z"/>
</g>
<path style="fill:#5D6D7E;" d="M286.684,360.271c-7.219-3.4-18.255-5.571-30.62-5.571c-12.396,0-23.429,2.171-30.656,5.571h-8.773
	v9.459c0,8.302,17.628,15.066,39.429,15.066c21.755,0,39.398-6.764,39.398-15.066v-9.459H286.684z"/>
<path id="SVGCleanerId_10" style="fill:#B8D1E6;" d="M216.637,360.271v7.396c0,8.302,17.628,15.058,39.429,15.058
	c21.755,0,39.398-6.756,39.398-15.058v-7.396L216.637,360.271L216.637,360.271z"/>
<g>
	<path id="SVGCleanerId_10_1_" style="fill:#B8D1E6;" d="M216.637,360.271v7.396c0,8.302,17.628,15.058,39.429,15.058
		c21.755,0,39.398-6.756,39.398-15.058v-7.396L216.637,360.271L216.637,360.271z"/>
</g>
<path style="fill:#B8D1E6;" d="M295.462,360.271c0,8.307-17.644,15.058-39.398,15.058c-21.801,0-39.429-6.751-39.429-15.058
	c0-8.315,17.628-15.037,39.429-15.037C277.819,345.234,295.462,351.956,295.462,360.271z"/>
<path style="fill:#F2F9FF;" d="M256.064,373.757c-22.643,0-37.852-6.968-37.852-13.486c0-6.49,15.209-13.458,37.852-13.458
	c22.628,0,37.816,6.968,37.816,13.458C293.883,366.651,278.354,373.757,256.064,373.757z"/>
<path style="fill:#B8D1E6;" d="M254.013,368.666c-6.579-0.197-11.494-1.196-14.871-2.534l4.214-2.212
	c2.355,0.998,6.057,1.917,10.657,2.189v-4.726c-6.579-0.632-13.471-1.539-13.471-4.705c0-2.473,5.233-4.447,13.471-4.721v-2.235
	h5.092v2.255c5.174,0.225,9.508,1.006,12.831,2.227l-4.209,2.112c-2.429-0.924-5.491-1.487-8.622-1.736v4.221
	c6.636,0.653,13.847,1.6,13.847,4.867c0,2.486-4.27,4.669-13.847,4.992v2.186h-5.092L254.013,368.666L254.013,368.666z
	 M254.013,358.285v-3.82c-3.576,0.174-5.814,0.927-5.814,1.999C248.2,357.414,250.629,357.898,254.013,358.285z M259.105,361.894
	v4.234c4.411-0.253,6.193-1.242,6.193-2.191C265.298,362.842,262.623,362.309,259.105,361.894z"/>
<g>
	<path style="fill:#F2F9FF;" d="M219.049,362.921v9.946c0.748,0.781,1.679,1.526,2.742,2.24v-9.321
		C220.577,364.864,219.651,363.901,219.049,362.921z"/>
	<path style="fill:#F2F9FF;" d="M289.597,366.228v9.329c1.047-0.64,1.969-1.313,2.747-2.015v-9.7
		C291.651,364.646,290.729,365.448,289.597,366.228z"/>
	<path style="fill:#F2F9FF;" d="M223.926,367.224v9.152c0.85,0.463,1.766,0.906,2.747,1.321v-9.075
		C225.672,368.172,224.763,367.703,223.926,367.224z"/>
	<path style="fill:#F2F9FF;" d="M228.808,369.516v9.024c0.878,0.315,1.792,0.625,2.742,0.911v-8.998
		C230.584,370.161,229.67,369.838,228.808,369.516z"/>
</g>
<path style="fill:#5D6D7E;" d="M286.684,349.24c-7.219-3.4-18.255-5.578-30.62-5.578c-12.396,0-23.429,2.179-30.656,5.578h-8.773
	v9.452c0,8.307,17.628,15.058,39.429,15.058c21.755,0,39.398-6.751,39.398-15.058v-9.452H286.684z"/>
<path id="SVGCleanerId_11" style="fill:#B8D1E6;" d="M216.637,349.24v7.388c0,8.302,17.628,15.05,39.429,15.05
	c21.755,0,39.398-6.748,39.398-15.05v-7.388H216.637z"/>
<g>
	<path id="SVGCleanerId_11_1_" style="fill:#B8D1E6;" d="M216.637,349.24v7.388c0,8.302,17.628,15.05,39.429,15.05
		c21.755,0,39.398-6.748,39.398-15.05v-7.388H216.637z"/>
</g>
<path style="fill:#B8D1E6;" d="M295.462,349.24c0,8.307-17.644,15.058-39.398,15.058c-21.801,0-39.429-6.751-39.429-15.058
	c0-8.317,17.628-15.037,39.429-15.037C277.819,334.203,295.462,340.923,295.462,349.24z"/>
<path style="fill:#F2F9FF;" d="M256.064,362.719c-22.643,0-37.852-6.976-37.852-13.478c0-6.505,15.209-13.458,37.852-13.458
	c22.628,0,37.816,6.953,37.816,13.458C293.883,355.615,278.354,362.719,256.064,362.719z"/>
<path style="fill:#B8D1E6;" d="M254.013,357.624c-6.579-0.197-11.494-1.195-14.871-2.527l4.214-2.22
	c2.355,1.006,6.057,1.925,10.657,2.196v-4.733c-6.579-0.625-13.471-1.533-13.471-4.7c0-2.478,5.233-4.46,13.471-4.721v-2.245h5.092
	v2.268c5.174,0.218,9.508,0.998,12.831,2.22l-4.209,2.112c-2.429-0.919-5.491-1.482-8.622-1.728v4.214
	c6.636,0.66,13.847,1.608,13.847,4.867c0,2.486-4.27,4.675-13.847,4.992v2.189h-5.092L254.013,357.624L254.013,357.624z
	 M254.013,347.254v-3.822c-3.576,0.169-5.814,0.927-5.814,2.002C248.2,346.381,250.629,346.865,254.013,347.254z M259.105,350.863
	v4.234c4.411-0.256,6.193-1.244,6.193-2.199C265.298,351.811,262.623,351.276,259.105,350.863z"/>
<g>
	<path style="fill:#F2F9FF;" d="M219.049,351.887v9.938c0.748,0.786,1.679,1.523,2.742,2.24v-9.313
		C220.577,353.825,219.651,352.863,219.049,351.887z"/>
	<path style="fill:#F2F9FF;" d="M289.597,355.187v9.334c1.047-0.64,1.969-1.316,2.747-2.022v-9.7
		C291.651,353.615,290.729,354.414,289.597,355.187z"/>
	<path style="fill:#F2F9FF;" d="M223.926,356.178v9.165c0.85,0.458,1.766,0.901,2.747,1.316v-9.075
		C225.672,357.133,224.763,356.662,223.926,356.178z"/>
	<path style="fill:#F2F9FF;" d="M228.808,358.474v9.024c0.878,0.323,1.792,0.632,2.742,0.911v-8.991
		C230.584,359.112,229.67,358.804,228.808,358.474z"/>
</g>
<path style="fill:#5D6D7E;" d="M286.684,338.196c-7.219-3.405-18.255-5.568-30.62-5.568c-12.396,0-23.429,2.163-30.656,5.568h-8.773
	v9.462c0,8.307,17.628,15.058,39.429,15.058c21.755,0,39.398-6.751,39.398-15.058v-9.462H286.684z"/>
<path id="SVGCleanerId_12" style="fill:#B8D1E6;" d="M216.637,338.196v7.391c0,8.307,17.628,15.058,39.429,15.058
	c21.755,0,39.398-6.751,39.398-15.058v-7.391H216.637z"/>
<g>
	<path id="SVGCleanerId_12_1_" style="fill:#B8D1E6;" d="M216.637,338.196v7.391c0,8.307,17.628,15.058,39.429,15.058
		c21.755,0,39.398-6.751,39.398-15.058v-7.391H216.637z"/>
</g>
<path style="fill:#B8D1E6;" d="M295.462,338.196c0,8.31-17.644,15.06-39.398,15.06c-21.801,0-39.429-6.751-39.429-15.06
	c0-8.323,17.628-15.035,39.429-15.035C277.819,323.162,295.462,329.874,295.462,338.196z"/>
<path style="fill:#F2F9FF;" d="M256.064,351.683c-22.643,0-37.852-6.973-37.852-13.486c0-6.495,15.209-13.455,37.852-13.455
	c22.628,0,37.816,6.961,37.816,13.455C293.883,344.576,278.354,351.683,256.064,351.683z"/>
<path style="fill:#B8D1E6;" d="M254.013,346.586c-6.579-0.197-11.494-1.188-14.871-2.529l4.214-2.217
	c2.355,0.998,6.057,1.923,10.657,2.189v-4.726c-6.579-0.625-13.471-1.533-13.471-4.692c0-2.481,5.233-4.46,13.471-4.736v-2.232
	h5.092v2.271c5.174,0.218,9.508,0.996,12.831,2.217l-4.209,2.115c-2.429-0.927-5.491-1.49-8.622-1.728v4.214
	c6.636,0.648,13.847,1.603,13.847,4.859c0,2.488-4.27,4.685-13.847,4.995v2.196h-5.092L254.013,346.586L254.013,346.586z
	 M254.013,336.218v-3.835c-3.576,0.182-5.814,0.934-5.814,2.002C248.2,335.34,250.629,335.826,254.013,336.218z M259.105,339.82
	v4.234c4.411-0.246,6.193-1.242,6.193-2.189C265.298,340.769,262.623,340.227,259.105,339.82z"/>
<g>
	<path style="fill:#F2F9FF;" d="M219.049,340.854v9.933c0.748,0.781,1.679,1.531,2.742,2.248v-9.313
		C220.577,342.784,219.651,341.821,219.049,340.854z"/>
	<path style="fill:#F2F9FF;" d="M289.597,344.156v9.334c1.047-0.645,1.969-1.321,2.747-2.022v-9.697
		C291.651,342.579,290.729,343.383,289.597,344.156z"/>
	<path style="fill:#F2F9FF;" d="M223.926,345.144v9.165c0.85,0.458,1.766,0.893,2.747,1.313v-9.08
		C225.672,346.092,224.763,345.631,223.926,345.144z"/>
	<path style="fill:#F2F9FF;" d="M228.808,347.435v9.029c0.878,0.317,1.792,0.62,2.742,0.914v-8.998
		C230.584,348.081,229.67,347.766,228.808,347.435z"/>
</g>
<path style="fill:#5D6D7E;" d="M286.684,327.158c-7.219-3.397-18.255-5.568-30.62-5.568c-12.396,0-23.429,2.171-30.656,5.568h-8.773
	v9.467c0,8.302,17.628,15.058,39.429,15.058c21.755,0,39.398-6.756,39.398-15.058v-9.467L286.684,327.158L286.684,327.158z"/>
<path id="SVGCleanerId_13" style="fill:#B8D1E6;" d="M216.637,327.158v7.396c0,8.302,17.628,15.06,39.429,15.06
	c21.755,0,39.398-6.758,39.398-15.06v-7.396H216.637z"/>
<g>
	<path id="SVGCleanerId_13_1_" style="fill:#B8D1E6;" d="M216.637,327.158v7.396c0,8.302,17.628,15.06,39.429,15.06
		c21.755,0,39.398-6.758,39.398-15.06v-7.396H216.637z"/>
</g>
<path style="fill:#B8D1E6;" d="M295.462,327.158c0,8.31-17.644,15.066-39.398,15.066c-21.801,0-39.429-6.756-39.429-15.066
	c0-8.315,17.628-15.027,39.429-15.027C277.819,312.131,295.462,318.843,295.462,327.158z"/>
<path style="fill:#F2F9FF;" d="M256.064,340.641c-22.643,0-37.852-6.968-37.852-13.486c0-6.487,15.209-13.455,37.852-13.455
	c22.628,0,37.816,6.968,37.816,13.455C293.883,333.535,278.354,340.641,256.064,340.641z"/>
<path style="fill:#B8D1E6;" d="M254.013,335.549c-6.579-0.195-11.494-1.193-14.871-2.534l4.214-2.212
	c2.355,0.998,6.057,1.917,10.657,2.191v-4.728c-6.579-0.632-13.471-1.539-13.471-4.698c0-2.481,5.233-4.452,13.471-4.728v-2.232
	h5.092v2.26c5.174,0.218,9.508,1.006,12.831,2.22l-4.209,2.115c-2.429-0.927-5.491-1.482-8.622-1.736v4.214
	c6.636,0.66,13.847,1.61,13.847,4.874c0,2.486-4.27,4.669-13.847,4.992v2.186h-5.092L254.013,335.549L254.013,335.549z
	 M254.013,325.176v-3.827c-3.576,0.174-5.814,0.927-5.814,2.002C248.2,324.301,250.629,324.785,254.013,325.176z M259.105,328.781
	v4.234c4.411-0.246,6.193-1.242,6.193-2.184C265.298,329.731,262.623,329.195,259.105,328.781z"/>
<g>
	<path style="fill:#F2F9FF;" d="M219.049,329.805v9.946c0.748,0.781,1.679,1.533,2.742,2.24v-9.313
		C220.577,331.753,219.651,330.79,219.049,329.805z"/>
	<path style="fill:#F2F9FF;" d="M289.597,333.115v9.326c1.047-0.637,1.969-1.313,2.747-2.007v-9.7
		C291.651,331.533,290.729,332.334,289.597,333.115z"/>
	<path style="fill:#F2F9FF;" d="M223.926,334.111v9.16c0.85,0.463,1.766,0.899,2.747,1.313v-9.073
		C225.672,335.06,224.763,334.589,223.926,334.111z"/>
	<path style="fill:#F2F9FF;" d="M228.808,336.399v9.032c0.878,0.31,1.792,0.617,2.742,0.906v-8.996
		C230.584,337.047,229.67,336.73,228.808,336.399z"/>
</g>
<path style="fill:#5D6D7E;" d="M286.684,316.124c-7.219-3.4-18.255-5.578-30.62-5.578c-12.396,0-23.429,2.179-30.656,5.578h-8.773
	v9.452c0,8.31,17.628,15.058,39.429,15.058c21.755,0,39.398-6.748,39.398-15.058v-9.452H286.684L286.684,316.124z"/>
<path id="SVGCleanerId_14" style="fill:#B8D1E6;" d="M216.637,316.124v7.388c0,8.31,17.628,15.058,39.429,15.058
	c21.755,0,39.398-6.748,39.398-15.058v-7.388H216.637L216.637,316.124z"/>
<g>
	<path id="SVGCleanerId_14_1_" style="fill:#B8D1E6;" d="M216.637,316.124v7.388c0,8.31,17.628,15.058,39.429,15.058
		c21.755,0,39.398-6.748,39.398-15.058v-7.388H216.637L216.637,316.124z"/>
</g>
<path style="fill:#B8D1E6;" d="M295.462,316.124c0,8.302-17.644,15.058-39.398,15.058c-21.801,0-39.429-6.756-39.429-15.058
	c0-8.315,17.628-15.037,39.429-15.037C277.819,301.087,295.462,307.809,295.462,316.124z"/>
<path style="fill:#F2F9FF;" d="M256.064,329.603c-22.643,0-37.852-6.976-37.852-13.478s15.209-13.458,37.852-13.458
	c22.628,0,37.816,6.956,37.816,13.458C293.883,322.504,278.354,329.603,256.064,329.603z"/>
<path style="fill:#B8D1E6;" d="M254.013,324.511c-6.579-0.195-11.494-1.193-14.871-2.527l4.214-2.22
	c2.355,1.006,6.057,1.925,10.657,2.196v-4.733c-6.579-0.625-13.471-1.531-13.471-4.698c0-2.481,5.233-4.452,13.471-4.721v-2.24
	h5.092v2.26c5.174,0.218,9.508,0.998,12.831,2.22l-4.209,2.115c-2.429-0.919-5.491-1.482-8.622-1.731v4.214
	c6.636,0.66,13.847,1.608,13.847,4.874c0,2.478-4.27,4.669-13.847,4.984v2.191h-5.092L254.013,324.511L254.013,324.511z
	 M254.013,314.138v-3.82c-3.576,0.166-5.814,0.927-5.814,1.999C248.2,313.267,250.629,313.751,254.013,314.138z M259.105,317.747
	v4.234c4.411-0.253,6.193-1.242,6.193-2.197C265.298,318.694,262.623,318.162,259.105,317.747z"/>
<g>
	<path style="fill:#F2F9FF;" d="M219.049,318.774v9.938c0.748,0.788,1.679,1.526,2.742,2.24v-9.313
		C220.577,320.709,219.651,319.749,219.049,318.774z"/>
	<path style="fill:#F2F9FF;" d="M289.597,322.081v9.329c1.047-0.64,1.969-1.313,2.747-2.022v-9.7
		C291.651,320.499,290.729,321.3,289.597,322.081z"/>
	<path style="fill:#F2F9FF;" d="M223.926,323.069v9.16c0.85,0.456,1.766,0.899,2.747,1.313v-9.068
		C225.672,324.024,224.763,323.548,223.926,323.069z"/>
	<path style="fill:#F2F9FF;" d="M228.808,325.361v9.024c0.878,0.323,1.792,0.632,2.742,0.911v-8.991
		C230.584,326.001,229.67,325.683,228.808,325.361z"/>
</g>
<path style="fill:#5D6D7E;" d="M286.684,305.085c-7.219-3.407-18.255-5.571-30.62-5.571c-12.396,0-23.429,2.163-30.656,5.571h-8.773
	v9.459c0,8.307,17.628,15.058,39.429,15.058c21.755,0,39.398-6.751,39.398-15.058v-9.459H286.684z"/>
<path id="SVGCleanerId_15" style="fill:#B8D1E6;" d="M216.637,305.085v7.396c0,8.302,17.628,15.05,39.429,15.05
	c21.755,0,39.398-6.748,39.398-15.05v-7.396H216.637z"/>
<g>
	<path id="SVGCleanerId_15_1_" style="fill:#B8D1E6;" d="M216.637,305.085v7.396c0,8.302,17.628,15.05,39.429,15.05
		c21.755,0,39.398-6.748,39.398-15.05v-7.396H216.637z"/>
</g>
<path style="fill:#B8D1E6;" d="M295.462,305.085c0,8.307-17.644,15.058-39.398,15.058c-21.801,0-39.429-6.751-39.429-15.058
	c0-8.31,17.628-15.037,39.429-15.037C277.819,290.048,295.462,296.776,295.462,305.085z"/>
<path style="fill:#F2F9FF;" d="M256.064,318.569c-22.643,0-37.852-6.976-37.852-13.486c0-6.497,15.209-13.458,37.852-13.458
	c22.628,0,37.816,6.961,37.816,13.458C293.883,311.462,278.354,318.569,256.064,318.569z"/>
<path style="fill:#5D6D7E;" d="M254.013,313.469c-6.579-0.189-11.494-1.188-14.871-2.527l4.214-2.212
	c2.355,0.998,6.057,1.917,10.657,2.186v-4.728c-6.579-0.625-13.471-1.533-13.471-4.692c0-2.478,5.233-4.46,13.471-4.721v-2.245
	h5.092v2.268c5.174,0.218,9.508,0.998,12.831,2.22l-4.209,2.112c-2.429-0.919-5.491-1.487-8.622-1.728v4.214
	c6.636,0.653,13.847,1.608,13.847,4.859c0,2.486-4.27,4.682-13.847,4.992v2.196h-5.092L254.013,313.469L254.013,313.469z
	 M254.013,303.104v-3.827c-3.576,0.174-5.814,0.932-5.814,1.992C248.2,302.234,250.629,302.71,254.013,303.104z M259.105,306.708
	v4.234c4.411-0.248,6.193-1.242,6.193-2.191C265.298,307.656,262.623,307.121,259.105,306.708z"/>
<g>
	<path style="fill:#F2F9FF;" d="M219.049,307.74v9.93c0.748,0.781,1.679,1.531,2.742,2.248v-9.321
		C220.577,309.67,219.651,308.708,219.049,307.74z"/>
	<path style="fill:#F2F9FF;" d="M289.597,311.04v9.334c1.047-0.648,1.969-1.324,2.747-2.022v-9.7
		C291.651,309.468,290.729,310.267,289.597,311.04z"/>
	<path style="fill:#F2F9FF;" d="M223.926,312.031v9.165c0.85,0.458,1.766,0.893,2.747,1.316v-9.083
		C225.672,312.978,224.763,312.515,223.926,312.031z"/>
	<path style="fill:#F2F9FF;" d="M228.808,314.319v9.032c0.878,0.323,1.792,0.625,2.742,0.911v-8.991
		C230.584,314.964,229.67,314.65,228.808,314.319z"/>
</g>
<path style="fill:#5D6D7E;" d="M198.285,360.271c-7.227-3.4-18.255-5.571-30.62-5.571c-12.39,0-23.437,2.171-30.656,5.571h-8.781
	v9.459c0,8.302,17.628,15.066,39.434,15.066c21.752,0,39.401-6.764,39.401-15.066v-9.459H198.285z"/>
<path id="SVGCleanerId_16" style="fill:#B8D1E6;" d="M128.228,360.271v7.396c0,8.302,17.628,15.058,39.434,15.058
	c21.752,0,39.401-6.756,39.401-15.058v-7.396L128.228,360.271L128.228,360.271z"/>
<g>
	<path id="SVGCleanerId_16_1_" style="fill:#B8D1E6;" d="M128.228,360.271v7.396c0,8.302,17.628,15.058,39.434,15.058
		c21.752,0,39.401-6.756,39.401-15.058v-7.396L128.228,360.271L128.228,360.271z"/>
</g>
<path style="fill:#B8D1E6;" d="M207.063,360.271c0,8.307-17.649,15.058-39.401,15.058c-21.806,0-39.434-6.751-39.434-15.058
	c0-8.315,17.628-15.037,39.434-15.037C189.414,345.234,207.063,351.956,207.063,360.271z"/>
<path style="fill:#F2F9FF;" d="M167.665,373.757c-22.643,0-37.855-6.968-37.855-13.486c0-6.49,15.212-13.458,37.855-13.458
	c22.623,0,37.819,6.968,37.819,13.458C205.484,366.651,189.949,373.757,167.665,373.757z"/>
<path style="fill:#B8D1E6;" d="M165.606,368.666c-6.569-0.197-11.482-1.196-14.871-2.534l4.216-2.212
	c2.353,0.998,6.062,1.917,10.655,2.189v-4.726c-6.569-0.632-13.463-1.539-13.463-4.705c0-2.473,5.228-4.447,13.463-4.721v-2.235h5.1
	v2.255c5.166,0.225,9.51,1.006,12.831,2.227l-4.214,2.112c-2.429-0.924-5.486-1.487-8.617-1.736v4.221
	c6.638,0.653,13.85,1.6,13.85,4.867c0,2.486-4.278,4.669-13.85,4.992v2.186h-5.1V368.666z M165.606,358.285v-3.82
	c-3.576,0.174-5.809,0.927-5.809,1.999C159.798,357.414,162.23,357.898,165.606,358.285z M170.706,361.894v4.234
	c4.411-0.253,6.188-1.242,6.188-2.191C176.893,362.842,174.223,362.309,170.706,361.894z"/>
<g>
	<path style="fill:#F2F9FF;" d="M130.652,362.921v9.946c0.748,0.781,1.672,1.526,2.732,2.24v-9.321
		C132.175,364.864,131.244,363.901,130.652,362.921z"/>
	<path style="fill:#F2F9FF;" d="M201.201,366.228v9.329c1.042-0.64,1.966-1.313,2.742-2.015v-9.7
		C203.251,364.646,202.33,365.448,201.201,366.228z"/>
	<path style="fill:#F2F9FF;" d="M135.526,367.224v9.152c0.85,0.463,1.761,0.906,2.739,1.321v-9.075
		C137.272,368.172,136.356,367.703,135.526,367.224z"/>
	<path style="fill:#F2F9FF;" d="M140.401,369.516v9.024c0.878,0.315,1.792,0.625,2.742,0.911v-8.998
		C142.185,370.161,141.271,369.838,140.401,369.516z"/>
</g>
<path style="fill:#5D6D7E;" d="M198.285,349.24c-7.227-3.4-18.255-5.578-30.62-5.578c-12.39,0-23.437,2.179-30.656,5.578h-8.781
	v9.452c0,8.307,17.628,15.058,39.434,15.058c21.752,0,39.401-6.751,39.401-15.058v-9.452H198.285z"/>
<path id="SVGCleanerId_17" style="fill:#B8D1E6;" d="M128.228,349.24v7.388c0,8.302,17.628,15.05,39.434,15.05
	c21.752,0,39.401-6.748,39.401-15.05v-7.388H128.228z"/>
<g>
	<path id="SVGCleanerId_17_1_" style="fill:#B8D1E6;" d="M128.228,349.24v7.388c0,8.302,17.628,15.05,39.434,15.05
		c21.752,0,39.401-6.748,39.401-15.05v-7.388H128.228z"/>
</g>
<path style="fill:#B8D1E6;" d="M207.063,349.24c0,8.307-17.649,15.058-39.401,15.058c-21.806,0-39.434-6.751-39.434-15.058
	c0-8.317,17.628-15.037,39.434-15.037C189.414,334.203,207.063,340.923,207.063,349.24z"/>
<path style="fill:#F2F9FF;" d="M167.665,362.719c-22.643,0-37.855-6.976-37.855-13.478c0-6.505,15.212-13.458,37.855-13.458
	c22.623,0,37.819,6.953,37.819,13.458C205.484,355.615,189.949,362.719,167.665,362.719z"/>
<path style="fill:#5D6D7E;" d="M165.606,357.624c-6.569-0.197-11.482-1.195-14.871-2.527l4.216-2.22
	c2.353,1.006,6.062,1.925,10.655,2.196v-4.733c-6.569-0.625-13.463-1.533-13.463-4.7c0-2.478,5.228-4.46,13.463-4.721v-2.245h5.1
	v2.268c5.166,0.218,9.51,0.998,12.831,2.22l-4.214,2.112c-2.429-0.919-5.486-1.482-8.617-1.728v4.214
	c6.638,0.66,13.85,1.608,13.85,4.867c0,2.486-4.278,4.675-13.85,4.992v2.189h-5.1V357.624z M165.606,347.254v-3.822
	c-3.576,0.169-5.809,0.927-5.809,2.002C159.798,346.381,162.23,346.865,165.606,347.254z M170.706,350.863v4.234
	c4.411-0.256,6.188-1.244,6.188-2.199C176.893,351.811,174.223,351.276,170.706,350.863z"/>
<g>
	<path style="fill:#F2F9FF;" d="M130.652,351.887v9.938c0.748,0.786,1.672,1.523,2.732,2.24v-9.313
		C132.175,353.825,131.244,352.863,130.652,351.887z"/>
	<path style="fill:#F2F9FF;" d="M201.201,355.187v9.334c1.042-0.64,1.966-1.316,2.742-2.022v-9.7
		C203.251,353.615,202.33,354.414,201.201,355.187z"/>
	<path style="fill:#F2F9FF;" d="M135.526,356.178v9.165c0.85,0.458,1.761,0.901,2.739,1.316v-9.075
		C137.272,357.133,136.356,356.662,135.526,356.178z"/>
	<path style="fill:#F2F9FF;" d="M140.401,358.474v9.024c0.878,0.323,1.792,0.632,2.742,0.911v-8.991
		C142.185,359.112,141.271,358.804,140.401,358.474z"/>
	<path style="fill:#F2F9FF;" d="M137.626,301.86c-4.518,0-8.553-3.203-9.446-7.811c-1.019-5.217,2.404-10.289,7.634-11.292
		c28.81-5.576,57.935-15.534,86.572-29.586c61.35-30.098,109.857-74.304,129.761-118.249c2.204-4.844,7.915-6.991,12.767-4.8
		c4.838,2.196,6.986,7.916,4.797,12.764c-21.696,47.887-73.597,95.585-138.831,127.596c-30.172,14.804-60.923,25.298-91.4,31.196
		C138.854,301.806,138.243,301.86,137.626,301.86z"/>
	<path style="fill:#F2F9FF;" d="M374.346,202.022c-4.314,0-8.241-2.921-9.341-7.301l-11.075-44.119l-44.124,11.08
		c-5.156,1.3-10.401-1.836-11.694-7.002c-1.298-5.164,1.841-10.399,7.002-11.697l62.822-15.775l15.772,62.822
		c1.293,5.166-1.841,10.401-6.999,11.699C375.921,201.923,375.127,202.022,374.346,202.022z"/>
</g>
<g>
</g>
<g>
</g>
<g>
</g>
<g>
</g>
<g>
</g>
<g>
</g>
<g>
</g>
<g>
</g>
<g>
</g>
<g>
</g>
<g>
</g>
<g>
</g>
<g>
</g>
<g>
</g>
<g>
</g>
</svg>
